<?xml version="1.0" standalone="no"?>
<!DOCTYPE svg PUBLIC "-//W3C//DTD SVG 20010904//EN"
 "http://www.w3.org/TR/2001/REC-SVG-20010904/DTD/svg10.dtd">
<svg version="1.0" xmlns="http://www.w3.org/2000/svg"
 width="700.000000pt" height="700.000000pt" viewBox="0 0 700.000000 700.000000"
 preserveAspectRatio="xMidYMid meet">
<metadata>
Created by potrace 1.14, written by Peter Selinger 2001-2017
</metadata>
<g transform="translate(0.000000,700.000000) scale(0.100000,-0.100000)"
fill="#000000" stroke="none">
<path d="M3278 6996 c-1 -2 -39 -6 -83 -10 -798 -62 -1600 -437 -2176 -1019
-293 -295 -552 -670 -704 -1017 -25 -58 -52 -118 -59 -135 -51 -115 -148 -423
-171 -546 -3 -13 -11 -58 -20 -99 -29 -150 -37 -204 -52 -375 -15 -167 -8
-601 12 -703 1 -9 6 -44 9 -77 4 -33 9 -67 11 -75 3 -8 7 -31 9 -50 15 -122
141 -574 185 -665 6 -11 21 -47 35 -80 112 -275 301 -591 497 -835 51 -63 102
-125 114 -136 161 -170 267 -273 355 -344 30 -25 61 -51 68 -57 28 -27 131
-103 222 -164 386 -263 791 -435 1250 -533 63 -13 134 -27 157 -30 22 -3 52
-8 65 -10 178 -40 765 -41 983 -2 17 3 48 8 70 11 222 32 499 109 745 207 496
197 960 522 1310 917 36 41 70 79 75 85 6 6 40 49 76 96 349 451 583 977 683
1530 14 81 17 101 32 215 3 27 8 61 11 75 2 14 5 138 7 275 4 342 -10 490 -76
800 -33 158 -31 149 -94 345 -334 1040 -1166 1878 -2212 2229 -172 57 -417
118 -552 136 -19 3 -46 7 -60 10 -13 2 -52 7 -86 11 -33 3 -74 8 -90 10 -32 5
-540 14 -546 10z m852 -1115 c85 -30 149 -71 207 -135 55 -61 108 -170 118
-245 11 -83 9 -341 -4 -387 -22 -80 -116 -161 -195 -166 l-35 -3 2 -225 2
-225 144 -245 c78 -135 153 -263 166 -285 33 -59 51 -91 175 -305 62 -107 191
-332 287 -500 97 -168 270 -469 386 -670 116 -201 222 -392 236 -425 40 -99
55 -244 37 -360 -44 -285 -262 -520 -546 -591 -72 -18 -146 -19 -1615 -18
l-1540 0 -80 23 c-262 74 -444 257 -516 517 -20 73 -29 234 -16 284 2 8 7 36
12 63 4 26 11 50 16 53 5 3 9 11 9 18 0 16 24 69 49 111 10 17 27 46 38 65
124 215 348 604 438 760 62 107 174 303 250 435 76 132 181 314 233 405 52 91
103 179 112 195 9 17 76 132 148 257 l130 227 -1 217 -2 217 -31 3 c-77 6
-174 89 -196 168 -17 63 -13 350 6 424 48 190 201 333 386 361 25 4 288 6 585
6 533 -2 541 -2 605 -24z"/>
<path d="M3264 5421 c-2 -2 -4 -238 -4 -523 l0 -519 -56 -97 c-31 -53 -65
-113 -76 -132 -11 -19 -54 -93 -96 -165 -41 -71 -83 -143 -92 -160 -9 -16
-135 -235 -280 -485 -145 -250 -271 -468 -280 -485 -94 -167 -256 -446 -271
-467 -11 -15 -19 -29 -19 -32 0 -2 -55 -98 -121 -213 -146 -249 -152 -263
-150 -332 2 -100 66 -189 158 -220 44 -15 187 -16 1533 -15 1651 0 1516 -5
1598 69 63 57 90 149 67 230 -6 22 -55 114 -107 205 -53 91 -105 181 -115 200
-11 19 -111 193 -223 385 -111 193 -288 499 -393 680 -104 182 -254 440 -332
575 -78 135 -154 268 -169 295 -16 28 -43 75 -62 106 l-34 57 0 523 0 524
-236 0 c-129 0 -237 -2 -240 -4z m411 -1937 c35 -16 65 -65 65 -104 0 -12 -7
-37 -16 -55 -16 -35 -65 -65 -104 -65 -68 0 -128 69 -117 136 14 85 93 126
172 88z m-245 -636 l311 -312 162 162 162 162 75 -132 c41 -72 87 -152 101
-177 14 -25 83 -144 153 -264 70 -121 125 -221 122 -225 -8 -7 -2015 -9 -2028
-1 -5 4 -1 20 10 40 60 105 513 889 558 967 30 50 56 92 59 92 2 0 144 -140
315 -312z"/>
</g>
</svg>
