<?xml version="1.0" encoding="UTF-8" standalone="no"?>
<!DOCTYPE svg PUBLIC "-//W3C//DTD SVG 1.1//EN"
 "http://www.w3.org/Graphics/SVG/1.1/DTD/svg11.dtd">
<!-- Generated by graphviz version 2.43.0 (0)
 -->
<!-- Title: scheduler input for main:entry Pages: 1 -->
<svg width="970pt" height="1076pt"
 viewBox="0.00 0.00 970.21 1076.00" xmlns="http://www.w3.org/2000/svg" xmlns:xlink="http://www.w3.org/1999/xlink">
<g id="graph0" class="graph" transform="scale(1 1) rotate(0) translate(4 1072)">
<title>scheduler input for main:entry</title>
<polygon fill="white" stroke="transparent" points="-4,4 -4,-1072 966.21,-1072 966.21,4 -4,4"/>
<text text-anchor="middle" x="481.1" y="-7.8" font-family="Times,serif" font-size="14.00">scheduler input for main:entry</text>
<!-- Node0x5573e0042bd8 -->
<g id="node1" class="node">
<title>Node0x5573e0042bd8</title>
<path fill="none" stroke="black" d="M405.21,-998.5C405.21,-998.5 480.21,-998.5 480.21,-998.5 486.21,-998.5 492.21,-1004.5 492.21,-1010.5 492.21,-1010.5 492.21,-1055.5 492.21,-1055.5 492.21,-1061.5 486.21,-1067.5 480.21,-1067.5 480.21,-1067.5 405.21,-1067.5 405.21,-1067.5 399.21,-1067.5 393.21,-1061.5 393.21,-1055.5 393.21,-1055.5 393.21,-1010.5 393.21,-1010.5 393.21,-1004.5 399.21,-998.5 405.21,-998.5"/>
<text text-anchor="middle" x="442.71" y="-1052.3" font-family="Times,serif" font-size="14.00">EntryToken</text>
<polyline fill="none" stroke="black" points="393.21,-1044.5 492.21,-1044.5 "/>
<text text-anchor="middle" x="442.71" y="-1029.3" font-family="Times,serif" font-size="14.00">t0</text>
<polyline fill="none" stroke="black" points="393.21,-1021.5 492.21,-1021.5 "/>
<text text-anchor="middle" x="442.71" y="-1006.3" font-family="Times,serif" font-size="14.00">ch</text>
</g>
<!-- Node0x5573e00b3c20 -->
<g id="node2" class="node">
<title>Node0x5573e00b3c20</title>
<path fill="none" stroke="black" d="M47.21,-998.5C47.21,-998.5 184.21,-998.5 184.21,-998.5 190.21,-998.5 196.21,-1004.5 196.21,-1010.5 196.21,-1010.5 196.21,-1055.5 196.21,-1055.5 196.21,-1061.5 190.21,-1067.5 184.21,-1067.5 184.21,-1067.5 47.21,-1067.5 47.21,-1067.5 41.21,-1067.5 35.21,-1061.5 35.21,-1055.5 35.21,-1055.5 35.21,-1010.5 35.21,-1010.5 35.21,-1004.5 41.21,-998.5 47.21,-998.5"/>
<text text-anchor="middle" x="115.71" y="-1052.3" font-family="Times,serif" font-size="14.00">TargetConstant&lt;0&gt;</text>
<polyline fill="none" stroke="black" points="35.21,-1044.5 196.21,-1044.5 "/>
<text text-anchor="middle" x="115.71" y="-1029.3" font-family="Times,serif" font-size="14.00">t7</text>
<polyline fill="none" stroke="black" points="35.21,-1021.5 196.21,-1021.5 "/>
<text text-anchor="middle" x="115.71" y="-1006.3" font-family="Times,serif" font-size="14.00">i64</text>
</g>
<!-- Node0x5573e00b3cf0 -->
<g id="node3" class="node">
<title>Node0x5573e00b3cf0</title>
<path fill="none" stroke="black" d="M581.21,-881C581.21,-881 668.21,-881 668.21,-881 674.21,-881 680.21,-887 680.21,-893 680.21,-893 680.21,-938 680.21,-938 680.21,-944 674.21,-950 668.21,-950 668.21,-950 581.21,-950 581.21,-950 575.21,-950 569.21,-944 569.21,-938 569.21,-938 569.21,-893 569.21,-893 569.21,-887 575.21,-881 581.21,-881"/>
<text text-anchor="middle" x="624.71" y="-934.8" font-family="Times,serif" font-size="14.00">Register $rdi</text>
<polyline fill="none" stroke="black" points="569.21,-927 680.21,-927 "/>
<text text-anchor="middle" x="624.71" y="-911.8" font-family="Times,serif" font-size="14.00">t9</text>
<polyline fill="none" stroke="black" points="569.21,-904 680.21,-904 "/>
<text text-anchor="middle" x="624.71" y="-888.8" font-family="Times,serif" font-size="14.00">i64</text>
</g>
<!-- Node0x5573e00b3dc0 -->
<g id="node4" class="node">
<title>Node0x5573e00b3dc0</title>
<path fill="none" stroke="black" d="M174.71,-752C174.71,-752 524.71,-752 524.71,-752 530.71,-752 536.71,-758 536.71,-764 536.71,-764 536.71,-809 536.71,-809 536.71,-815 530.71,-821 524.71,-821 524.71,-821 174.71,-821 174.71,-821 168.71,-821 162.71,-815 162.71,-809 162.71,-809 162.71,-764 162.71,-764 162.71,-758 168.71,-752 174.71,-752"/>
<text text-anchor="middle" x="349.71" y="-805.8" font-family="Times,serif" font-size="14.00">TargetGlobalAddress&lt;i32 (i8*)* @puts&gt; 0 [TF=6]</text>
<polyline fill="none" stroke="black" points="162.71,-798 536.71,-798 "/>
<text text-anchor="middle" x="349.71" y="-782.8" font-family="Times,serif" font-size="14.00">t11</text>
<polyline fill="none" stroke="black" points="162.71,-775 536.71,-775 "/>
<text text-anchor="middle" x="349.71" y="-759.8" font-family="Times,serif" font-size="14.00">i64</text>
</g>
<!-- Node0x5573e00b3e28 -->
<g id="node5" class="node">
<title>Node0x5573e00b3e28</title>
<path fill="none" stroke="black" d="M604.71,-752C604.71,-752 696.71,-752 696.71,-752 702.71,-752 708.71,-758 708.71,-764 708.71,-764 708.71,-809 708.71,-809 708.71,-815 702.71,-821 696.71,-821 696.71,-821 604.71,-821 604.71,-821 598.71,-821 592.71,-815 592.71,-809 592.71,-809 592.71,-764 592.71,-764 592.71,-758 598.71,-752 604.71,-752"/>
<text text-anchor="middle" x="650.71" y="-805.8" font-family="Times,serif" font-size="14.00">RegisterMask</text>
<polyline fill="none" stroke="black" points="592.71,-798 708.71,-798 "/>
<text text-anchor="middle" x="650.71" y="-782.8" font-family="Times,serif" font-size="14.00">t12</text>
<polyline fill="none" stroke="black" points="592.71,-775 708.71,-775 "/>
<text text-anchor="middle" x="650.71" y="-759.8" font-family="Times,serif" font-size="14.00">Untyped</text>
</g>
<!-- Node0x5573e00b3f60 -->
<g id="node6" class="node">
<title>Node0x5573e00b3f60</title>
<path fill="none" stroke="black" d="M136.71,-494C136.71,-494 228.71,-494 228.71,-494 234.71,-494 240.71,-500 240.71,-506 240.71,-506 240.71,-551 240.71,-551 240.71,-557 234.71,-563 228.71,-563 228.71,-563 136.71,-563 136.71,-563 130.71,-563 124.71,-557 124.71,-551 124.71,-551 124.71,-506 124.71,-506 124.71,-500 130.71,-494 136.71,-494"/>
<text text-anchor="middle" x="182.71" y="-547.8" font-family="Times,serif" font-size="14.00">Register $eax</text>
<polyline fill="none" stroke="black" points="124.71,-540 240.71,-540 "/>
<text text-anchor="middle" x="182.71" y="-524.8" font-family="Times,serif" font-size="14.00">t15</text>
<polyline fill="none" stroke="black" points="124.71,-517 240.71,-517 "/>
<text text-anchor="middle" x="182.71" y="-501.8" font-family="Times,serif" font-size="14.00">i32</text>
</g>
<!-- Node0x5573e00b4030 -->
<g id="node7" class="node">
<title>Node0x5573e00b4030</title>
<path fill="none" stroke="black" d="M379.71,-365C379.71,-365 441.71,-365 441.71,-365 447.71,-365 453.71,-371 453.71,-377 453.71,-377 453.71,-422 453.71,-422 453.71,-428 447.71,-434 441.71,-434 441.71,-434 379.71,-434 379.71,-434 373.71,-434 367.71,-428 367.71,-422 367.71,-422 367.71,-377 367.71,-377 367.71,-371 373.71,-365 379.71,-365"/>
<text text-anchor="middle" x="410.71" y="-418.8" font-family="Times,serif" font-size="14.00">MOV32r0</text>
<polyline fill="none" stroke="black" points="367.71,-411 453.71,-411 "/>
<text text-anchor="middle" x="410.71" y="-395.8" font-family="Times,serif" font-size="14.00">t17</text>
<polyline fill="none" stroke="black" points="367.71,-388 453.71,-388 "/>
<text text-anchor="middle" x="389.21" y="-372.8" font-family="Times,serif" font-size="14.00">i32</text>
<polyline fill="none" stroke="black" points="410.71,-365 410.71,-388 "/>
<text text-anchor="middle" x="432.21" y="-372.8" font-family="Times,serif" font-size="14.00">i32</text>
</g>
<!-- Node0x5573e00b4098 -->
<g id="node8" class="node">
<title>Node0x5573e00b4098</title>
<path fill="none" stroke="black" d="M226.21,-998.5C226.21,-998.5 363.21,-998.5 363.21,-998.5 369.21,-998.5 375.21,-1004.5 375.21,-1010.5 375.21,-1010.5 375.21,-1055.5 375.21,-1055.5 375.21,-1061.5 369.21,-1067.5 363.21,-1067.5 363.21,-1067.5 226.21,-1067.5 226.21,-1067.5 220.21,-1067.5 214.21,-1061.5 214.21,-1055.5 214.21,-1055.5 214.21,-1010.5 214.21,-1010.5 214.21,-1004.5 220.21,-998.5 226.21,-998.5"/>
<text text-anchor="middle" x="294.71" y="-1052.3" font-family="Times,serif" font-size="14.00">TargetConstant&lt;0&gt;</text>
<polyline fill="none" stroke="black" points="214.21,-1044.5 375.21,-1044.5 "/>
<text text-anchor="middle" x="294.71" y="-1029.3" font-family="Times,serif" font-size="14.00">t18</text>
<polyline fill="none" stroke="black" points="214.21,-1021.5 375.21,-1021.5 "/>
<text text-anchor="middle" x="294.71" y="-1006.3" font-family="Times,serif" font-size="14.00">i32</text>
</g>
<!-- Node0x5573e00b39b0 -->
<g id="node9" class="node">
<title>Node0x5573e00b39b0</title>
<path fill="none" stroke="black" d="M665.21,-998.5C665.21,-998.5 950.21,-998.5 950.21,-998.5 956.21,-998.5 962.21,-1004.5 962.21,-1010.5 962.21,-1010.5 962.21,-1055.5 962.21,-1055.5 962.21,-1061.5 956.21,-1067.5 950.21,-1067.5 950.21,-1067.5 665.21,-1067.5 665.21,-1067.5 659.21,-1067.5 653.21,-1061.5 653.21,-1055.5 653.21,-1055.5 653.21,-1010.5 653.21,-1010.5 653.21,-1004.5 659.21,-998.5 665.21,-998.5"/>
<text text-anchor="middle" x="807.71" y="-1052.3" font-family="Times,serif" font-size="14.00">TargetGlobalAddress&lt;[13 x i8]* @str&gt; 0</text>
<polyline fill="none" stroke="black" points="653.21,-1044.5 962.21,-1044.5 "/>
<text text-anchor="middle" x="807.71" y="-1029.3" font-family="Times,serif" font-size="14.00">t21</text>
<polyline fill="none" stroke="black" points="653.21,-1021.5 962.21,-1021.5 "/>
<text text-anchor="middle" x="807.71" y="-1006.3" font-family="Times,serif" font-size="14.00">i64</text>
</g>
<!-- Node0x5573e00b3c88 -->
<g id="node10" class="node">
<title>Node0x5573e00b3c88</title>
<path fill="none" stroke="black" d="M156.21,-869.5C156.21,-869.5 329.21,-869.5 329.21,-869.5 335.21,-869.5 341.21,-875.5 341.21,-881.5 341.21,-881.5 341.21,-949.5 341.21,-949.5 341.21,-955.5 335.21,-961.5 329.21,-961.5 329.21,-961.5 156.21,-961.5 156.21,-961.5 150.21,-961.5 144.21,-955.5 144.21,-949.5 144.21,-949.5 144.21,-881.5 144.21,-881.5 144.21,-875.5 150.21,-869.5 156.21,-869.5"/>
<text text-anchor="middle" x="168.71" y="-946.3" font-family="Times,serif" font-size="14.00">0</text>
<polyline fill="none" stroke="black" points="193.21,-938.5 193.21,-961.5 "/>
<text text-anchor="middle" x="217.71" y="-946.3" font-family="Times,serif" font-size="14.00">1</text>
<polyline fill="none" stroke="black" points="242.21,-938.5 242.21,-961.5 "/>
<text text-anchor="middle" x="266.71" y="-946.3" font-family="Times,serif" font-size="14.00">2</text>
<polyline fill="none" stroke="black" points="291.21,-938.5 291.21,-961.5 "/>
<text text-anchor="middle" x="316.21" y="-946.3" font-family="Times,serif" font-size="14.00">3</text>
<polyline fill="none" stroke="black" points="144.21,-938.5 341.21,-938.5 "/>
<text text-anchor="middle" x="242.71" y="-923.3" font-family="Times,serif" font-size="14.00">ADJCALLSTACKDOWN64</text>
<polyline fill="none" stroke="black" points="144.21,-915.5 341.21,-915.5 "/>
<text text-anchor="middle" x="242.71" y="-900.3" font-family="Times,serif" font-size="14.00">t8</text>
<polyline fill="none" stroke="black" points="144.21,-892.5 341.21,-892.5 "/>
<text text-anchor="middle" x="176.71" y="-877.3" font-family="Times,serif" font-size="14.00">i64</text>
<polyline fill="none" stroke="black" points="209.21,-869.5 209.21,-892.5 "/>
<text text-anchor="middle" x="238.71" y="-877.3" font-family="Times,serif" font-size="14.00">ch</text>
<polyline fill="none" stroke="black" points="268.21,-869.5 268.21,-892.5 "/>
<text text-anchor="middle" x="304.71" y="-877.3" font-family="Times,serif" font-size="14.00">glue</text>
</g>
<!-- Node0x5573e00b3c88&#45;&gt;Node0x5573e0042bd8 -->
<g id="edge4" class="edge">
<title>Node0x5573e00b3c88:s3&#45;&gt;Node0x5573e0042bd8:d0</title>
<path fill="none" stroke="blue" stroke-dasharray="5,2" d="M342.71,-950.5C370.89,-950.5 368.2,-975.16 384.71,-998 385.5,-999.09 385.99,-1000.28 386.32,-1001.48"/>
<polygon fill="blue" stroke="blue" points="383.41,-1003.41 391.71,-1010 389.33,-999.68 383.41,-1003.41"/>
</g>
<!-- Node0x5573e00b3c88&#45;&gt;Node0x5573e00b3c20 -->
<g id="edge1" class="edge">
<title>Node0x5573e00b3c88:s0&#45;&gt;Node0x5573e00b3c20:d0</title>
<path fill="none" stroke="black" d="M142.71,-950.5C137.58,-950.5 141.11,-957.57 143.71,-962 158.12,-986.56 182.35,-973.41 196.71,-998 197.05,-998.58 197.4,-999.2 197.75,-999.84"/>
<polygon fill="black" stroke="black" points="194.25,-999.99 197.71,-1010 201.25,-1000.01 194.25,-999.99"/>
</g>
<!-- Node0x5573e00b3c88&#45;&gt;Node0x5573e00b3c20 -->
<g id="edge2" class="edge">
<title>Node0x5573e00b3c88:s1&#45;&gt;Node0x5573e00b3c20:d0</title>
<path fill="none" stroke="black" d="M217.71,-962C217.71,-964.08 208.87,-987.96 202.83,-1001.24"/>
<polygon fill="black" stroke="black" points="199.73,-999.6 197.71,-1010 205.77,-1003.13 199.73,-999.6"/>
</g>
<!-- Node0x5573e00b3c88&#45;&gt;Node0x5573e00b4098 -->
<g id="edge3" class="edge">
<title>Node0x5573e00b3c88:s2&#45;&gt;Node0x5573e00b4098:d0</title>
<path fill="none" stroke="black" d="M266.71,-962C266.71,-978.15 284.49,-978.55 291.71,-988.3"/>
<polygon fill="black" stroke="black" points="288.41,-989.48 294.71,-998 295.1,-987.41 288.41,-989.48"/>
</g>
<!-- Node0x5573e00b3a18 -->
<g id="node11" class="node">
<title>Node0x5573e00b3a18</title>
<path fill="none" stroke="black" d="M770.21,-869.5C770.21,-869.5 845.21,-869.5 845.21,-869.5 851.21,-869.5 857.21,-875.5 857.21,-881.5 857.21,-881.5 857.21,-949.5 857.21,-949.5 857.21,-955.5 851.21,-961.5 845.21,-961.5 845.21,-961.5 770.21,-961.5 770.21,-961.5 764.21,-961.5 758.21,-955.5 758.21,-949.5 758.21,-949.5 758.21,-881.5 758.21,-881.5 758.21,-875.5 764.21,-869.5 770.21,-869.5"/>
<text text-anchor="middle" x="807.71" y="-946.3" font-family="Times,serif" font-size="14.00">0</text>
<polyline fill="none" stroke="black" points="758.21,-938.5 857.21,-938.5 "/>
<text text-anchor="middle" x="807.71" y="-923.3" font-family="Times,serif" font-size="14.00">MOV32ri64</text>
<polyline fill="none" stroke="black" points="758.21,-915.5 857.21,-915.5 "/>
<text text-anchor="middle" x="807.71" y="-900.3" font-family="Times,serif" font-size="14.00">t22</text>
<polyline fill="none" stroke="black" points="758.21,-892.5 857.21,-892.5 "/>
<text text-anchor="middle" x="807.71" y="-877.3" font-family="Times,serif" font-size="14.00">i64</text>
</g>
<!-- Node0x5573e00b3a18&#45;&gt;Node0x5573e00b39b0 -->
<g id="edge5" class="edge">
<title>Node0x5573e00b3a18:s0&#45;&gt;Node0x5573e00b39b0:d0</title>
<path fill="none" stroke="black" d="M807.71,-962C807.71,-974 807.71,-979.25 807.71,-987.88"/>
<polygon fill="black" stroke="black" points="804.21,-988 807.71,-998 811.21,-988 804.21,-988"/>
</g>
<!-- Node0x5573e00b3d58 -->
<g id="node12" class="node">
<title>Node0x5573e00b3d58</title>
<path fill="none" stroke="black" d="M739.21,-740.5C739.21,-740.5 812.21,-740.5 812.21,-740.5 818.21,-740.5 824.21,-746.5 824.21,-752.5 824.21,-752.5 824.21,-820.5 824.21,-820.5 824.21,-826.5 818.21,-832.5 812.21,-832.5 812.21,-832.5 739.21,-832.5 739.21,-832.5 733.21,-832.5 727.21,-826.5 727.21,-820.5 727.21,-820.5 727.21,-752.5 727.21,-752.5 727.21,-746.5 733.21,-740.5 739.21,-740.5"/>
<text text-anchor="middle" x="743.21" y="-817.3" font-family="Times,serif" font-size="14.00">0</text>
<polyline fill="none" stroke="black" points="759.21,-809.5 759.21,-832.5 "/>
<text text-anchor="middle" x="775.21" y="-817.3" font-family="Times,serif" font-size="14.00">1</text>
<polyline fill="none" stroke="black" points="791.21,-809.5 791.21,-832.5 "/>
<text text-anchor="middle" x="807.71" y="-817.3" font-family="Times,serif" font-size="14.00">2</text>
<polyline fill="none" stroke="black" points="727.21,-809.5 824.21,-809.5 "/>
<text text-anchor="middle" x="775.71" y="-794.3" font-family="Times,serif" font-size="14.00">CopyToReg</text>
<polyline fill="none" stroke="black" points="727.21,-786.5 824.21,-786.5 "/>
<text text-anchor="middle" x="775.71" y="-771.3" font-family="Times,serif" font-size="14.00">t10</text>
<polyline fill="none" stroke="black" points="727.21,-763.5 824.21,-763.5 "/>
<text text-anchor="middle" x="747.71" y="-748.3" font-family="Times,serif" font-size="14.00">ch</text>
<polyline fill="none" stroke="black" points="768.21,-740.5 768.21,-763.5 "/>
<text text-anchor="middle" x="796.21" y="-748.3" font-family="Times,serif" font-size="14.00">glue</text>
</g>
<!-- Node0x5573e00b3d58&#45;&gt;Node0x5573e00b3cf0 -->
<g id="edge7" class="edge">
<title>Node0x5573e00b3d58:s1&#45;&gt;Node0x5573e00b3cf0:d0</title>
<path fill="none" stroke="black" d="M774.71,-833C774.71,-854.66 721.35,-884.45 691.96,-891.13"/>
<polygon fill="black" stroke="black" points="691.16,-887.71 681.71,-892.5 692.08,-894.65 691.16,-887.71"/>
</g>
<!-- Node0x5573e00b3d58&#45;&gt;Node0x5573e00b3c88 -->
<g id="edge6" class="edge">
<title>Node0x5573e00b3d58:s0&#45;&gt;Node0x5573e00b3c88:d1</title>
<path fill="none" stroke="blue" stroke-dasharray="5,2" d="M725.71,-821.5C719.48,-821.5 723.12,-829.91 717.71,-833 674.26,-857.82 291.28,-820.83 243.58,-860.09"/>
<polygon fill="blue" stroke="blue" points="240.44,-858.55 238.71,-869 246.58,-861.9 240.44,-858.55"/>
</g>
<!-- Node0x5573e00b3d58&#45;&gt;Node0x5573e00b3a18 -->
<g id="edge8" class="edge">
<title>Node0x5573e00b3d58:s2&#45;&gt;Node0x5573e00b3a18:d0</title>
<path fill="none" stroke="black" d="M807.71,-833C807.71,-845 807.71,-850.25 807.71,-858.88"/>
<polygon fill="black" stroke="black" points="804.21,-859 807.71,-869 811.21,-859 804.21,-859"/>
</g>
<!-- Node0x5573e00b3e90 -->
<g id="node13" class="node">
<title>Node0x5573e00b3e90</title>
<path fill="none" stroke="black" d="M537.71,-611.5C537.71,-611.5 643.71,-611.5 643.71,-611.5 649.71,-611.5 655.71,-617.5 655.71,-623.5 655.71,-623.5 655.71,-691.5 655.71,-691.5 655.71,-697.5 649.71,-703.5 643.71,-703.5 643.71,-703.5 537.71,-703.5 537.71,-703.5 531.71,-703.5 525.71,-697.5 525.71,-691.5 525.71,-691.5 525.71,-623.5 525.71,-623.5 525.71,-617.5 531.71,-611.5 537.71,-611.5"/>
<text text-anchor="middle" x="538.71" y="-688.3" font-family="Times,serif" font-size="14.00">0</text>
<polyline fill="none" stroke="black" points="551.71,-680.5 551.71,-703.5 "/>
<text text-anchor="middle" x="564.71" y="-688.3" font-family="Times,serif" font-size="14.00">1</text>
<polyline fill="none" stroke="black" points="577.71,-680.5 577.71,-703.5 "/>
<text text-anchor="middle" x="590.71" y="-688.3" font-family="Times,serif" font-size="14.00">2</text>
<polyline fill="none" stroke="black" points="603.71,-680.5 603.71,-703.5 "/>
<text text-anchor="middle" x="616.71" y="-688.3" font-family="Times,serif" font-size="14.00">3</text>
<polyline fill="none" stroke="black" points="629.71,-680.5 629.71,-703.5 "/>
<text text-anchor="middle" x="642.71" y="-688.3" font-family="Times,serif" font-size="14.00">4</text>
<polyline fill="none" stroke="black" points="525.71,-680.5 655.71,-680.5 "/>
<text text-anchor="middle" x="590.71" y="-665.3" font-family="Times,serif" font-size="14.00">CALL64pcrel32</text>
<polyline fill="none" stroke="black" points="525.71,-657.5 655.71,-657.5 "/>
<text text-anchor="middle" x="590.71" y="-642.3" font-family="Times,serif" font-size="14.00">t13</text>
<polyline fill="none" stroke="black" points="525.71,-634.5 655.71,-634.5 "/>
<text text-anchor="middle" x="554.71" y="-619.3" font-family="Times,serif" font-size="14.00">ch</text>
<polyline fill="none" stroke="black" points="583.71,-611.5 583.71,-634.5 "/>
<text text-anchor="middle" x="619.71" y="-619.3" font-family="Times,serif" font-size="14.00">glue</text>
</g>
<!-- Node0x5573e00b3e90&#45;&gt;Node0x5573e00b3cf0 -->
<g id="edge10" class="edge">
<title>Node0x5573e00b3e90:s1&#45;&gt;Node0x5573e00b3cf0:d0</title>
<path fill="none" stroke="black" d="M564.71,-704C564.71,-742.13 532.49,-867 558.29,-889.13"/>
<polygon fill="black" stroke="black" points="557.12,-892.43 567.71,-892.5 559.47,-885.84 557.12,-892.43"/>
</g>
<!-- Node0x5573e00b3e90&#45;&gt;Node0x5573e00b3dc0 -->
<g id="edge9" class="edge">
<title>Node0x5573e00b3e90:s0&#45;&gt;Node0x5573e00b3dc0:d0</title>
<path fill="none" stroke="black" d="M524.71,-692.5C498.39,-692.5 545.59,-740.28 545.69,-757.45"/>
<polygon fill="black" stroke="black" points="543.56,-754.67 537.71,-763.5 547.79,-760.24 543.56,-754.67"/>
</g>
<!-- Node0x5573e00b3e90&#45;&gt;Node0x5573e00b3e28 -->
<g id="edge11" class="edge">
<title>Node0x5573e00b3e90:s2&#45;&gt;Node0x5573e00b3e28:d0</title>
<path fill="none" stroke="black" d="M590.71,-704C590.71,-725.7 573.59,-751.84 582.03,-760.53"/>
<polygon fill="black" stroke="black" points="581.12,-763.91 591.71,-763.5 583.18,-757.22 581.12,-763.91"/>
</g>
<!-- Node0x5573e00b3e90&#45;&gt;Node0x5573e00b3d58 -->
<g id="edge12" class="edge">
<title>Node0x5573e00b3e90:s3&#45;&gt;Node0x5573e00b3d58:d0</title>
<path fill="none" stroke="blue" stroke-dasharray="5,2" d="M616.71,-704C616.71,-751.66 679.85,-711.06 717.71,-740 718.79,-740.83 719.49,-741.84 719.97,-742.92"/>
<polygon fill="blue" stroke="blue" points="717.24,-745.13 725.71,-751.5 723.06,-741.24 717.24,-745.13"/>
</g>
<!-- Node0x5573e00b3e90&#45;&gt;Node0x5573e00b3d58 -->
<g id="edge13" class="edge">
<title>Node0x5573e00b3e90:s4&#45;&gt;Node0x5573e00b3d58:d1</title>
<path fill="none" stroke="red" stroke-width="2" d="M656.71,-692.5C686.1,-692.5 774.93,-704.22 793.35,-730.21"/>
<polygon fill="red" stroke="red" stroke-width="2" points="790.15,-731.68 796.71,-740 796.77,-729.41 790.15,-731.68"/>
</g>
<!-- Node0x5573e00b3ef8 -->
<g id="node14" class="node">
<title>Node0x5573e00b3ef8</title>
<path fill="none" stroke="black" d="M271.21,-482.5C271.21,-482.5 416.21,-482.5 416.21,-482.5 422.21,-482.5 428.21,-488.5 428.21,-494.5 428.21,-494.5 428.21,-562.5 428.21,-562.5 428.21,-568.5 422.21,-574.5 416.21,-574.5 416.21,-574.5 271.21,-574.5 271.21,-574.5 265.21,-574.5 259.21,-568.5 259.21,-562.5 259.21,-562.5 259.21,-494.5 259.21,-494.5 259.21,-488.5 265.21,-482.5 271.21,-482.5"/>
<text text-anchor="middle" x="280.21" y="-559.3" font-family="Times,serif" font-size="14.00">0</text>
<polyline fill="none" stroke="black" points="301.21,-551.5 301.21,-574.5 "/>
<text text-anchor="middle" x="322.21" y="-559.3" font-family="Times,serif" font-size="14.00">1</text>
<polyline fill="none" stroke="black" points="343.21,-551.5 343.21,-574.5 "/>
<text text-anchor="middle" x="364.21" y="-559.3" font-family="Times,serif" font-size="14.00">2</text>
<polyline fill="none" stroke="black" points="385.21,-551.5 385.21,-574.5 "/>
<text text-anchor="middle" x="406.71" y="-559.3" font-family="Times,serif" font-size="14.00">3</text>
<polyline fill="none" stroke="black" points="259.21,-551.5 428.21,-551.5 "/>
<text text-anchor="middle" x="343.71" y="-536.3" font-family="Times,serif" font-size="14.00">ADJCALLSTACKUP64</text>
<polyline fill="none" stroke="black" points="259.21,-528.5 428.21,-528.5 "/>
<text text-anchor="middle" x="343.71" y="-513.3" font-family="Times,serif" font-size="14.00">t14</text>
<polyline fill="none" stroke="black" points="259.21,-505.5 428.21,-505.5 "/>
<text text-anchor="middle" x="286.71" y="-490.3" font-family="Times,serif" font-size="14.00">i64</text>
<polyline fill="none" stroke="black" points="314.21,-482.5 314.21,-505.5 "/>
<text text-anchor="middle" x="339.21" y="-490.3" font-family="Times,serif" font-size="14.00">ch</text>
<polyline fill="none" stroke="black" points="364.21,-482.5 364.21,-505.5 "/>
<text text-anchor="middle" x="396.21" y="-490.3" font-family="Times,serif" font-size="14.00">glue</text>
</g>
<!-- Node0x5573e00b3ef8&#45;&gt;Node0x5573e00b3c20 -->
<g id="edge14" class="edge">
<title>Node0x5573e00b3ef8:s0&#45;&gt;Node0x5573e00b3c20:d0</title>
<path fill="none" stroke="black" d="M257.71,-563.5C251.48,-563.5 254.79,-571.39 249.71,-575 201.18,-609.47 161.66,-567.8 120.71,-611 60.84,-674.16 -47.67,-983.12 23.57,-1008.36"/>
<polygon fill="black" stroke="black" points="23.28,-1011.86 33.71,-1010 24.4,-1004.95 23.28,-1011.86"/>
</g>
<!-- Node0x5573e00b3ef8&#45;&gt;Node0x5573e00b3c20 -->
<g id="edge15" class="edge">
<title>Node0x5573e00b3ef8:s1&#45;&gt;Node0x5573e00b3c20:d0</title>
<path fill="none" stroke="black" d="M321.71,-575C321.71,-679.66 201.14,-646.71 153.71,-740 102.78,-840.19 114.89,-879.69 115.67,-987.68"/>
<polygon fill="black" stroke="black" points="112.17,-988.01 115.71,-998 119.17,-987.99 112.17,-988.01"/>
</g>
<!-- Node0x5573e00b3ef8&#45;&gt;Node0x5573e00b3e90 -->
<g id="edge16" class="edge">
<title>Node0x5573e00b3ef8:s2&#45;&gt;Node0x5573e00b3e90:d0</title>
<path fill="none" stroke="blue" stroke-dasharray="5,2" d="M364.71,-575C364.71,-609.19 469.17,-620.71 514.55,-622.3"/>
<polygon fill="blue" stroke="blue" points="514.64,-625.8 524.71,-622.5 514.78,-618.81 514.64,-625.8"/>
</g>
<!-- Node0x5573e00b3ef8&#45;&gt;Node0x5573e00b3e90 -->
<g id="edge17" class="edge">
<title>Node0x5573e00b3ef8:s3&#45;&gt;Node0x5573e00b3e90:d1</title>
<path fill="none" stroke="red" stroke-width="2" d="M429.71,-563.5C469.66,-563.5 596.37,-566.85 616.89,-601.07"/>
<polygon fill="red" stroke="red" stroke-width="2" points="613.61,-602.34 619.71,-611 620.35,-600.42 613.61,-602.34"/>
</g>
<!-- Node0x5573e00b3fc8 -->
<g id="node15" class="node">
<title>Node0x5573e00b3fc8</title>
<path fill="none" stroke="black" d="M242.21,-353.5C242.21,-353.5 337.21,-353.5 337.21,-353.5 343.21,-353.5 349.21,-359.5 349.21,-365.5 349.21,-365.5 349.21,-433.5 349.21,-433.5 349.21,-439.5 343.21,-445.5 337.21,-445.5 337.21,-445.5 242.21,-445.5 242.21,-445.5 236.21,-445.5 230.21,-439.5 230.21,-433.5 230.21,-433.5 230.21,-365.5 230.21,-365.5 230.21,-359.5 236.21,-353.5 242.21,-353.5"/>
<text text-anchor="middle" x="249.71" y="-430.3" font-family="Times,serif" font-size="14.00">0</text>
<polyline fill="none" stroke="black" points="269.21,-422.5 269.21,-445.5 "/>
<text text-anchor="middle" x="289.21" y="-430.3" font-family="Times,serif" font-size="14.00">1</text>
<polyline fill="none" stroke="black" points="309.21,-422.5 309.21,-445.5 "/>
<text text-anchor="middle" x="329.21" y="-430.3" font-family="Times,serif" font-size="14.00">2</text>
<polyline fill="none" stroke="black" points="230.21,-422.5 349.21,-422.5 "/>
<text text-anchor="middle" x="289.71" y="-407.3" font-family="Times,serif" font-size="14.00">CopyFromReg</text>
<polyline fill="none" stroke="black" points="230.21,-399.5 349.21,-399.5 "/>
<text text-anchor="middle" x="289.71" y="-384.3" font-family="Times,serif" font-size="14.00">t16</text>
<polyline fill="none" stroke="black" points="230.21,-376.5 349.21,-376.5 "/>
<text text-anchor="middle" x="249.71" y="-361.3" font-family="Times,serif" font-size="14.00">i32</text>
<polyline fill="none" stroke="black" points="269.21,-353.5 269.21,-376.5 "/>
<text text-anchor="middle" x="285.71" y="-361.3" font-family="Times,serif" font-size="14.00">ch</text>
<polyline fill="none" stroke="black" points="302.21,-353.5 302.21,-376.5 "/>
<text text-anchor="middle" x="325.71" y="-361.3" font-family="Times,serif" font-size="14.00">glue</text>
</g>
<!-- Node0x5573e00b3fc8&#45;&gt;Node0x5573e00b3f60 -->
<g id="edge19" class="edge">
<title>Node0x5573e00b3fc8:s1&#45;&gt;Node0x5573e00b3f60:d0</title>
<path fill="none" stroke="black" d="M288.71,-446C288.71,-469.26 263.64,-462.66 250.71,-482 247.51,-486.79 248.19,-492.89 248.06,-497.68"/>
<polygon fill="black" stroke="black" points="245.3,-495.53 241.71,-505.5 250.73,-499.94 245.3,-495.53"/>
</g>
<!-- Node0x5573e00b3fc8&#45;&gt;Node0x5573e00b3ef8 -->
<g id="edge18" class="edge">
<title>Node0x5573e00b3fc8:s0&#45;&gt;Node0x5573e00b3ef8:d1</title>
<path fill="none" stroke="blue" stroke-dasharray="5,2" d="M249.71,-446C249.71,-484.5 322.18,-448.09 336.33,-471.96"/>
<polygon fill="blue" stroke="blue" points="333,-473.08 338.71,-482 339.81,-471.46 333,-473.08"/>
</g>
<!-- Node0x5573e00b3fc8&#45;&gt;Node0x5573e00b3ef8 -->
<g id="edge20" class="edge">
<title>Node0x5573e00b3fc8:s2&#45;&gt;Node0x5573e00b3ef8:d2</title>
<path fill="none" stroke="red" stroke-width="2" d="M329.71,-446C329.71,-475.58 381.01,-455.08 393.83,-472.13"/>
<polygon fill="red" stroke="red" stroke-width="2" points="390.55,-473.38 396.71,-482 397.27,-471.42 390.55,-473.38"/>
</g>
<!-- Node0x5573e00b4100 -->
<g id="node16" class="node">
<title>Node0x5573e00b4100</title>
<path fill="none" stroke="black" d="M204.21,-224.5C204.21,-224.5 277.21,-224.5 277.21,-224.5 283.21,-224.5 289.21,-230.5 289.21,-236.5 289.21,-236.5 289.21,-304.5 289.21,-304.5 289.21,-310.5 283.21,-316.5 277.21,-316.5 277.21,-316.5 204.21,-316.5 204.21,-316.5 198.21,-316.5 192.21,-310.5 192.21,-304.5 192.21,-304.5 192.21,-236.5 192.21,-236.5 192.21,-230.5 198.21,-224.5 204.21,-224.5"/>
<text text-anchor="middle" x="208.21" y="-301.3" font-family="Times,serif" font-size="14.00">0</text>
<polyline fill="none" stroke="black" points="224.21,-293.5 224.21,-316.5 "/>
<text text-anchor="middle" x="240.21" y="-301.3" font-family="Times,serif" font-size="14.00">1</text>
<polyline fill="none" stroke="black" points="256.21,-293.5 256.21,-316.5 "/>
<text text-anchor="middle" x="272.71" y="-301.3" font-family="Times,serif" font-size="14.00">2</text>
<polyline fill="none" stroke="black" points="192.21,-293.5 289.21,-293.5 "/>
<text text-anchor="middle" x="240.71" y="-278.3" font-family="Times,serif" font-size="14.00">CopyToReg</text>
<polyline fill="none" stroke="black" points="192.21,-270.5 289.21,-270.5 "/>
<text text-anchor="middle" x="240.71" y="-255.3" font-family="Times,serif" font-size="14.00">t19</text>
<polyline fill="none" stroke="black" points="192.21,-247.5 289.21,-247.5 "/>
<text text-anchor="middle" x="212.71" y="-232.3" font-family="Times,serif" font-size="14.00">ch</text>
<polyline fill="none" stroke="black" points="233.21,-224.5 233.21,-247.5 "/>
<text text-anchor="middle" x="261.21" y="-232.3" font-family="Times,serif" font-size="14.00">glue</text>
</g>
<!-- Node0x5573e00b4100&#45;&gt;Node0x5573e00b3f60 -->
<g id="edge22" class="edge">
<title>Node0x5573e00b4100:s1&#45;&gt;Node0x5573e00b3f60:d0</title>
<path fill="none" stroke="black" d="M239.71,-317C239.71,-335.09 227.35,-336.17 220.71,-353 198.42,-409.51 184.31,-426.42 182.84,-482.38"/>
<polygon fill="black" stroke="black" points="179.34,-482.46 182.71,-492.5 186.34,-482.55 179.34,-482.46"/>
</g>
<!-- Node0x5573e00b4100&#45;&gt;Node0x5573e00b4030 -->
<g id="edge23" class="edge">
<title>Node0x5573e00b4100:s2&#45;&gt;Node0x5573e00b4030:d0</title>
<path fill="none" stroke="black" d="M290.71,-305.5C327.58,-305.5 336.56,-323.53 358.71,-353 362.02,-357.41 361.27,-363.28 361.06,-368.06"/>
<polygon fill="black" stroke="black" points="358.24,-370.14 366.71,-376.5 364.06,-366.24 358.24,-370.14"/>
</g>
<!-- Node0x5573e00b4100&#45;&gt;Node0x5573e00b3fc8 -->
<g id="edge21" class="edge">
<title>Node0x5573e00b4100:s0&#45;&gt;Node0x5573e00b3fc8:d1</title>
<path fill="none" stroke="blue" stroke-dasharray="5,2" d="M207.71,-317C207.71,-351 269.58,-322.71 283.11,-343.09"/>
<polygon fill="blue" stroke="blue" points="279.79,-344.21 285.71,-353 286.56,-342.44 279.79,-344.21"/>
</g>
<!-- Node0x5573e00b4168 -->
<g id="node17" class="node">
<title>Node0x5573e00b4168</title>
<path fill="none" stroke="black" d="M147.71,-95.5C147.71,-95.5 227.71,-95.5 227.71,-95.5 233.71,-95.5 239.71,-101.5 239.71,-107.5 239.71,-107.5 239.71,-175.5 239.71,-175.5 239.71,-181.5 233.71,-187.5 227.71,-187.5 227.71,-187.5 147.71,-187.5 147.71,-187.5 141.71,-187.5 135.71,-181.5 135.71,-175.5 135.71,-175.5 135.71,-107.5 135.71,-107.5 135.71,-101.5 141.71,-95.5 147.71,-95.5"/>
<text text-anchor="middle" x="148.71" y="-172.3" font-family="Times,serif" font-size="14.00">0</text>
<polyline fill="none" stroke="black" points="161.71,-164.5 161.71,-187.5 "/>
<text text-anchor="middle" x="174.71" y="-172.3" font-family="Times,serif" font-size="14.00">1</text>
<polyline fill="none" stroke="black" points="187.71,-164.5 187.71,-187.5 "/>
<text text-anchor="middle" x="200.71" y="-172.3" font-family="Times,serif" font-size="14.00">2</text>
<polyline fill="none" stroke="black" points="213.71,-164.5 213.71,-187.5 "/>
<text text-anchor="middle" x="226.71" y="-172.3" font-family="Times,serif" font-size="14.00">3</text>
<polyline fill="none" stroke="black" points="135.71,-164.5 239.71,-164.5 "/>
<text text-anchor="middle" x="187.71" y="-149.3" font-family="Times,serif" font-size="14.00">RET</text>
<polyline fill="none" stroke="black" points="135.71,-141.5 239.71,-141.5 "/>
<text text-anchor="middle" x="187.71" y="-126.3" font-family="Times,serif" font-size="14.00">t20</text>
<polyline fill="none" stroke="black" points="135.71,-118.5 239.71,-118.5 "/>
<text text-anchor="middle" x="187.71" y="-103.3" font-family="Times,serif" font-size="14.00">ch</text>
</g>
<!-- Node0x5573e00b4168&#45;&gt;Node0x5573e00b3f60 -->
<g id="edge25" class="edge">
<title>Node0x5573e00b4168:s1&#45;&gt;Node0x5573e00b3f60:d0</title>
<path fill="none" stroke="black" d="M174.71,-188C174.71,-319.94 182.31,-355.34 182.69,-482.38"/>
<polygon fill="black" stroke="black" points="179.19,-482.51 182.71,-492.5 186.19,-482.49 179.19,-482.51"/>
</g>
<!-- Node0x5573e00b4168&#45;&gt;Node0x5573e00b4098 -->
<g id="edge24" class="edge">
<title>Node0x5573e00b4168:s0&#45;&gt;Node0x5573e00b4098:d0</title>
<path fill="none" stroke="black" d="M148.71,-188C148.71,-284.37 96.71,-302.13 96.71,-398.5 96.71,-398.5 96.71,-398.5 96.71,-658.5 96.71,-740.09 92.26,-779.33 153.71,-833 220.75,-891.55 287.44,-806.4 350.71,-869 360.18,-878.37 383.12,-970.6 381.08,-1000.62"/>
<polygon fill="black" stroke="black" points="377.76,-999.46 376.71,-1010 384.11,-1002.41 377.76,-999.46"/>
</g>
<!-- Node0x5573e00b4168&#45;&gt;Node0x5573e00b4100 -->
<g id="edge26" class="edge">
<title>Node0x5573e00b4168:s2&#45;&gt;Node0x5573e00b4100:d0</title>
<path fill="none" stroke="blue" stroke-dasharray="5,2" d="M200.71,-188C200.71,-200.78 207.6,-205.18 210.94,-213.9"/>
<polygon fill="blue" stroke="blue" points="207.54,-214.75 212.71,-224 214.43,-213.55 207.54,-214.75"/>
</g>
<!-- Node0x5573e00b4168&#45;&gt;Node0x5573e00b4100 -->
<g id="edge27" class="edge">
<title>Node0x5573e00b4168:s3&#45;&gt;Node0x5573e00b4100:d1</title>
<path fill="none" stroke="red" stroke-width="2" d="M226.71,-188C226.71,-206.13 249.82,-203.83 258.48,-214.3"/>
<polygon fill="red" stroke="red" stroke-width="2" points="255.23,-215.62 261.71,-224 261.87,-213.41 255.23,-215.62"/>
</g>
<!-- Node0x0 -->
<g id="node18" class="node">
<title>Node0x0</title>
<ellipse fill="none" stroke="black" cx="187.71" cy="-41" rx="61.19" ry="18"/>
<text text-anchor="middle" x="187.71" y="-37.3" font-family="Times,serif" font-size="14.00">GraphRoot</text>
</g>
<!-- Node0x0&#45;&gt;Node0x5573e00b4168 -->
<g id="edge28" class="edge">
<title>Node0x0&#45;&gt;Node0x5573e00b4168:d0</title>
<path fill="none" stroke="blue" stroke-dasharray="5,2" d="M187.71,-59.19C187.71,-66.72 187.71,-75.9 187.71,-84.94"/>
<polygon fill="blue" stroke="blue" points="184.21,-85 187.71,-95 191.21,-85 184.21,-85"/>
</g>
</g>
</svg>
