<?xml version="1.0" encoding="UTF-8" standalone="no"?>
<svg
   width="332.3638"
   height="313.6933"
   viewBox="0 0 332.3638 313.6933"
   fill="none"
   version="1.1"
   id="svg14"
   sodipodi:docname="CFG1_0_whitebg.svg"
   inkscape:version="1.3.2 (091e20ef0f, 2023-11-25, custom)"
   xmlns:inkscape="http://www.inkscape.org/namespaces/inkscape"
   xmlns:sodipodi="http://sodipodi.sourceforge.net/DTD/sodipodi-0.dtd"
   xmlns="http://www.w3.org/2000/svg"
   xmlns:svg="http://www.w3.org/2000/svg">
  <defs
     id="defs14" />
  <sodipodi:namedview
     id="namedview14"
     pagecolor="#ffffff"
     bordercolor="#000000"
     borderopacity="0.25"
     inkscape:showpageshadow="2"
     inkscape:pageopacity="0.0"
     inkscape:pagecheckerboard="0"
     inkscape:deskcolor="#d1d1d1"
     inkscape:zoom="1.6068107"
     inkscape:cx="52.588645"
     inkscape:cy="166.16767"
     inkscape:window-width="2560"
     inkscape:window-height="1372"
     inkscape:window-x="0"
     inkscape:window-y="0"
     inkscape:window-maximized="1"
     inkscape:current-layer="svg14" />
  <rect
     style="fill:#ffffff;fill-opacity:1;stroke:none;stroke-width:0.973115"
     id="rect14"
     width="332.3638"
     height="313.6933"
     x="0"
     y="0" />
  <g
     id="g14"
     transform="translate(27.132354,28.346649)">
    <circle
       cx="19.000099"
       cy="19"
       r="18.5"
       fill="#ffffff"
       stroke="#000000"
       id="circle1" />
    <circle
       cx="19.000099"
       cy="165"
       r="18.5"
       fill="#ffffff"
       stroke="#000000"
       id="circle2" />
    <circle
       cx="19.000099"
       cy="92"
       r="18.5"
       fill="#ffffff"
       stroke="#000000"
       id="circle3" />
    <circle
       cx="19.000099"
       cy="238"
       r="18.5"
       fill="#ffffff"
       stroke="#000000"
       id="circle4" />
    <path
       d="m 60.9681,28.24 c -1.088,0 -1.96,-0.288 -2.616,-0.864 -0.656,-0.592 -0.984,-1.392 -0.984,-2.4 l 0.432,0.504 h -0.432 V 28 h -2.16 V 10.48 h 2.16 v 3.84 l -0.048,3 h 0.48 l -0.432,0.504 c 0,-0.992 0.328,-1.784 0.984,-2.376 0.672,-0.592 1.544,-0.888 2.616,-0.888 1.328,0 2.392,0.44 3.192,1.32 0.8,0.88 1.2,2.08 1.2,3.6 v 3.864 c 0,1.504 -0.4,2.696 -1.2,3.576 -0.8,0.88 -1.864,1.32 -3.192,1.32 z m -0.72,-1.872 c 0.912,0 1.632,-0.272 2.16,-0.816 0.528,-0.544 0.792,-1.328 0.792,-2.352 v -3.6 c 0,-1.024 -0.264,-1.808 -0.792,-2.352 -0.528,-0.544 -1.248,-0.816 -2.16,-0.816 -0.88,0 -1.584,0.28 -2.112,0.84 -0.512,0.56 -0.768,1.336 -0.768,2.328 v 3.6 c 0,0.992 0.256,1.768 0.768,2.328 0.528,0.56 1.232,0.84 2.112,0.84 z m 14.3426,1.872 c -1.04,0 -1.952,-0.208 -2.736,-0.624 -0.768,-0.416 -1.368,-1 -1.8,-1.752 -0.416,-0.768 -0.624,-1.656 -0.624,-2.664 v -3.6 c 0,-1.024 0.208,-1.912 0.624,-2.664 0.432,-0.752 1.032,-1.336 1.8,-1.752 0.784,-0.416 1.696,-0.624 2.736,-0.624 1.04,0 1.944,0.208 2.712,0.624 0.784,0.416 1.384,1 1.8,1.752 0.432,0.752 0.648,1.64 0.648,2.664 v 2.328 h -8.208 V 23.2 c 0,1.04 0.264,1.84 0.792,2.4 0.528,0.544 1.28,0.816 2.256,0.816 0.832,0 1.504,-0.144 2.016,-0.432 0.512,-0.304 0.824,-0.752 0.936,-1.344 h 2.16 c -0.144,1.104 -0.688,1.984 -1.632,2.64 -0.928,0.64 -2.088,0.96 -3.48,0.96 z m 3.048,-7.752 V 19.6 c 0,-1.04 -0.264,-1.84 -0.792,-2.4 -0.512,-0.56 -1.264,-0.84 -2.256,-0.84 -0.976,0 -1.728,0.28 -2.256,0.84 -0.528,0.56 -0.792,1.36 -0.792,2.4 v 0.696 h 6.264 z m 8.0066,11.832 v -1.968 h 4.2 c 0.672,0 1.16,-0.152 1.464,-0.456 0.32,-0.304 0.48,-0.776 0.48,-1.416 V 26.8 l 0.048,-2.4 h -0.432 l 0.408,-0.36 c 0,0.96 -0.32,1.72 -0.96,2.28 -0.64,0.56 -1.496,0.84 -2.568,0.84 -1.36,0 -2.432,-0.44 -3.216,-1.32 -0.784,-0.896 -1.176,-2.096 -1.176,-3.6 v -2.784 c 0,-1.504 0.392,-2.696 1.176,-3.576 0.784,-0.88 1.856,-1.32 3.216,-1.32 1.072,0 1.928,0.28 2.568,0.84 0.64,0.56 0.96,1.32 0.96,2.28 l -0.408,-0.36 h 0.408 V 14.8 h 2.136 v 13.68 c 0,1.184 -0.368,2.12 -1.104,2.808 -0.72,0.688 -1.728,1.032 -3.024,1.032 z m 3.288,-7.032 c 0.896,0 1.6,-0.28 2.112,-0.84 0.512,-0.56 0.768,-1.336 0.768,-2.328 V 19.6 c 0,-0.992 -0.256,-1.768 -0.768,-2.328 -0.512,-0.56 -1.216,-0.84 -2.112,-0.84 -0.912,0 -1.624,0.272 -2.136,0.816 -0.496,0.544 -0.744,1.328 -0.744,2.352 v 2.52 c 0,1.024 0.248,1.808 0.744,2.352 0.512,0.544 1.224,0.816 2.136,0.816 z M 98.2119,28 v -1.968 h 4.6801 V 16.768 H 98.8119 V 14.8 h 6.2401 v 11.232 h 4.44 V 28 Z m 5.5201,-15.576 c -0.528,0 -0.944,-0.136 -1.248,-0.408 -0.304,-0.272 -0.456,-0.64 -0.456,-1.104 0,-0.48 0.152,-0.856 0.456,-1.128 0.304,-0.288 0.72,-0.432 1.248,-0.432 0.528,0 0.944,0.144 1.248,0.432 0.304,0.272 0.456,0.648 0.456,1.128 0,0.464 -0.152,0.832 -0.456,1.104 -0.304,0.272 -0.72,0.408 -1.248,0.408 z M 112.771,28 V 14.8 h 2.16 v 2.52 h 0.456 l -0.456,0.504 c 0,-1.04 0.312,-1.84 0.936,-2.4 0.624,-0.576 1.488,-0.864 2.592,-0.864 1.328,0 2.384,0.408 3.168,1.224 0.784,0.816 1.176,1.928 1.176,3.336 V 28 h -2.16 v -8.64 c 0,-0.944 -0.256,-1.664 -0.768,-2.16 -0.496,-0.512 -1.176,-0.768 -2.04,-0.768 -0.896,0 -1.608,0.272 -2.136,0.816 -0.512,0.544 -0.768,1.328 -0.768,2.352 V 28 Z"
       fill="#000000"
       id="path4" />
    <path
       d="m 14.8001,26 v -1.64 h 3.96 V 12.9 l -3.96,2.96 v -2 l 3.3,-2.46 h 2.46 v 12.96 h 3.24 V 26 Z"
       fill="#000000"
       id="path5" />
    <path
       d="M 55.2081,180.32 V 162.8 h 2.16 v 2.52 h 0.432 l -0.432,0.504 c 0,-1.008 0.328,-1.8 0.984,-2.376 0.672,-0.592 1.552,-0.888 2.64,-0.888 1.328,0 2.384,0.44 3.168,1.32 0.8,0.864 1.2,2.056 1.2,3.576 v 3.864 c 0,1.008 -0.184,1.88 -0.552,2.616 -0.352,0.736 -0.856,1.304 -1.512,1.704 -0.64,0.4 -1.408,0.6 -2.304,0.6 -1.072,0 -1.944,-0.296 -2.616,-0.888 -0.672,-0.592 -1.008,-1.384 -1.008,-2.376 l 0.432,0.504 h -0.48 l 0.048,3 v 3.84 z m 5.064,-5.952 c 0.912,0 1.624,-0.272 2.136,-0.816 0.528,-0.544 0.792,-1.328 0.792,-2.352 v -3.6 c 0,-1.024 -0.264,-1.808 -0.792,-2.352 -0.512,-0.544 -1.224,-0.816 -2.136,-0.816 -0.88,0 -1.584,0.28 -2.112,0.84 -0.528,0.56 -0.792,1.336 -0.792,2.328 v 3.6 c 0,0.992 0.264,1.768 0.792,2.328 0.528,0.56 1.232,0.84 2.112,0.84 z M 70.0547,176 v -13.2 h 2.112 v 2.52 h 0.504 l -0.696,1.56 c 0,-1.424 0.304,-2.496 0.912,-3.216 0.624,-0.736 1.544,-1.104 2.76,-1.104 1.392,0 2.496,0.44 3.312,1.32 0.832,0.864 1.248,2.04 1.248,3.528 v 0.792 h -2.16 v -0.6 c 0,-1.04 -0.256,-1.832 -0.768,-2.376 -0.496,-0.56 -1.208,-0.84 -2.136,-0.84 -0.912,0 -1.632,0.28 -2.16,0.84 -0.512,0.56 -0.768,1.352 -0.768,2.376 v 8.4 z m 13.7666,0 v -1.968 h 4.68 v -9.264 h -4.08 V 162.8 h 6.24 v 11.232 h 4.44 V 176 Z m 5.52,-15.576 c -0.528,0 -0.944,-0.136 -1.248,-0.408 -0.304,-0.272 -0.456,-0.64 -0.456,-1.104 0,-0.48 0.152,-0.856 0.456,-1.128 0.304,-0.288 0.72,-0.432 1.248,-0.432 0.528,0 0.944,0.144 1.248,0.432 0.304,0.272 0.456,0.648 0.456,1.128 0,0.464 -0.152,0.832 -0.456,1.104 -0.304,0.272 -0.72,0.408 -1.248,0.408 z M 98.3799,176 v -13.2 h 2.1601 v 2.52 h 0.456 l -0.456,0.504 c 0,-1.04 0.312,-1.84 0.936,-2.4 0.624,-0.576 1.488,-0.864 2.592,-0.864 1.328,0 2.384,0.408 3.168,1.224 0.784,0.816 1.176,1.928 1.176,3.336 V 176 h -2.16 v -8.64 c 0,-0.944 -0.256,-1.664 -0.768,-2.16 -0.496,-0.512 -1.176,-0.768 -2.04,-0.768 -0.896,0 -1.608,0.272 -2.136,0.816 -0.512,0.544 -0.768,1.328 -0.768,2.352 v 8.4 z m 20.8231,0 c -1.136,0 -2.024,-0.304 -2.664,-0.912 -0.624,-0.608 -0.936,-1.464 -0.936,-2.568 v -7.752 h -3.72 V 162.8 h 3.72 v -3.72 h 2.16 v 3.72 h 5.28 v 1.968 h -5.28 v 7.752 c 0,1.008 0.48,1.512 1.44,1.512 h 3.6 V 176 Z m 11.03,0 v -9.912 h -3.84 v -1.968 h 3.84 v -2.28 c 0,-1.04 0.328,-1.856 0.984,-2.448 0.656,-0.608 1.56,-0.912 2.712,-0.912 h 3.864 v 1.968 h -3.864 c -0.496,0 -0.88,0.12 -1.152,0.36 -0.256,0.224 -0.384,0.568 -0.384,1.032 v 2.28 h 5.4 v 1.968 h -5.4 V 176 Z m 20.751,2.88 c -2.272,-0.56 -4.04,-1.664 -5.304,-3.312 -1.264,-1.648 -1.896,-3.664 -1.896,-6.048 v -4.32 c 0,-1.568 0.288,-2.984 0.864,-4.248 0.592,-1.28 1.424,-2.36 2.496,-3.24 1.088,-0.88 2.368,-1.504 3.84,-1.872 v 2.04 c -1.024,0.24 -1.912,0.704 -2.664,1.392 -0.752,0.672 -1.336,1.512 -1.752,2.52 -0.416,1.008 -0.624,2.144 -0.624,3.408 v 4.32 c 0,1.232 0.2,2.352 0.6,3.36 0.416,1.008 1,1.848 1.752,2.52 0.768,0.656 1.664,1.104 2.688,1.344 z m 10.07,-14.04 3.12,-7.464 h 1.92 l -1.92,7.464 z m -5.52,0 3.12,-7.464 h 1.92 l -1.92,7.464 z m 12.927,11.16 11.952,-17.52 h 1.776 L 170.237,176 Z m 10.344,0.12 c -1.008,0 -1.816,-0.288 -2.424,-0.864 -0.608,-0.576 -0.912,-1.368 -0.912,-2.376 v -1.56 c 0,-1.008 0.304,-1.8 0.912,-2.376 0.608,-0.576 1.416,-0.864 2.424,-0.864 1.008,0 1.816,0.288 2.424,0.864 0.608,0.576 0.912,1.368 0.912,2.376 v 1.56 c 0,1.008 -0.304,1.8 -0.912,2.376 -0.608,0.576 -1.416,0.864 -2.424,0.864 z m 0,-1.656 c 1.04,0 1.56,-0.528 1.56,-1.584 v -1.56 c 0,-1.072 -0.52,-1.608 -1.56,-1.608 -1.04,0 -1.56,0.536 -1.56,1.608 v 1.56 c 0,1.056 0.52,1.584 1.56,1.584 z m -6.96,-8.064 c -1.008,0 -1.816,-0.288 -2.424,-0.864 -0.608,-0.576 -0.912,-1.368 -0.912,-2.376 v -1.56 c 0,-1.008 0.304,-1.8 0.912,-2.376 0.608,-0.576 1.416,-0.864 2.424,-0.864 1.008,0 1.816,0.288 2.424,0.864 0.608,0.576 0.912,1.368 0.912,2.376 v 1.56 c 0,1.008 -0.304,1.8 -0.912,2.376 -0.608,0.576 -1.416,0.864 -2.424,0.864 z m 0,-1.632 c 1.04,0 1.56,-0.536 1.56,-1.608 v -1.56 c 0,-1.072 -0.52,-1.608 -1.56,-1.608 -0.512,0 -0.904,0.136 -1.176,0.408 -0.256,0.256 -0.384,0.656 -0.384,1.2 v 1.56 c 0,0.544 0.128,0.952 0.384,1.224 0.272,0.256 0.664,0.384 1.176,0.384 z m 17.103,11.472 c -1.312,0 -2.376,-0.44 -3.192,-1.32 -0.8,-0.88 -1.2,-2.072 -1.2,-3.576 v -3.864 c 0,-1.52 0.4,-2.72 1.2,-3.6 0.8,-0.88 1.864,-1.32 3.192,-1.32 1.088,0 1.96,0.296 2.616,0.888 0.656,0.592 0.984,1.384 0.984,2.376 l -0.432,-0.504 h 0.48 l -0.048,-3 v -3.84 h 2.16 V 176 h -2.16 v -2.52 h -0.432 l 0.432,-0.504 c 0,1.008 -0.328,1.808 -0.984,2.4 -0.656,0.576 -1.528,0.864 -2.616,0.864 z m 0.72,-1.872 c 0.896,0 1.6,-0.28 2.112,-0.84 0.512,-0.56 0.768,-1.336 0.768,-2.328 v -3.6 c 0,-0.992 -0.256,-1.768 -0.768,-2.328 -0.512,-0.56 -1.216,-0.84 -2.112,-0.84 -0.912,0 -1.632,0.272 -2.16,0.816 -0.528,0.544 -0.792,1.328 -0.792,2.352 v 3.6 c 0,1.024 0.264,1.808 0.792,2.352 0.528,0.544 1.248,0.816 2.16,0.816 z m 14.798,-9.528 1.92,-7.464 h 3.12 l -3.12,7.464 z m -5.52,0 1.92,-7.464 h 3.12 l -3.12,7.464 z m 16.311,15 1.92,-7.464 h 3.12 l -3.12,7.464 z m 26.021,-3.84 4.68,-6.792 -4.392,-6.408 h 2.544 l 2.616,4.08 c 0.112,0.176 0.216,0.368 0.312,0.576 0.112,0.208 0.2,0.376 0.264,0.504 0.048,-0.128 0.12,-0.296 0.216,-0.504 0.112,-0.208 0.224,-0.4 0.336,-0.576 l 2.64,-4.08 h 2.52 l -4.392,6.432 4.656,6.768 h -2.544 l -2.832,-4.32 c -0.112,-0.176 -0.224,-0.376 -0.336,-0.6 -0.096,-0.24 -0.184,-0.432 -0.264,-0.576 -0.064,0.144 -0.16,0.336 -0.288,0.576 -0.112,0.224 -0.232,0.424 -0.36,0.6 l -2.856,4.32 z m 15.951,2.88 v -2.136 c 1.04,-0.24 1.936,-0.688 2.688,-1.344 0.752,-0.672 1.328,-1.512 1.728,-2.52 0.416,-1.008 0.624,-2.128 0.624,-3.36 v -4.32 c 0,-1.264 -0.208,-2.4 -0.624,-3.408 -0.416,-1.008 -1,-1.848 -1.752,-2.52 -0.752,-0.688 -1.64,-1.152 -2.664,-1.392 v -2.04 c 1.488,0.368 2.768,0.992 3.84,1.872 1.072,0.88 1.896,1.96 2.472,3.24 0.592,1.264 0.888,2.68 0.888,4.248 v 4.32 c 0,2.384 -0.632,4.4 -1.896,6.048 -1.264,1.648 -3.032,2.752 -5.304,3.312 z m 15.71,0.96 1.92,-7.464 h 3.12 l -3.12,7.464 z m 2.88,-13.68 c -0.528,0 -0.96,-0.168 -1.296,-0.504 -0.336,-0.336 -0.504,-0.768 -0.504,-1.296 0,-0.512 0.168,-0.936 0.504,-1.272 0.352,-0.352 0.784,-0.528 1.296,-0.528 h 0.48 c 0.512,0 0.936,0.176 1.272,0.528 0.352,0.336 0.528,0.76 0.528,1.272 0,0.528 -0.168,0.96 -0.504,1.296 -0.336,0.336 -0.768,0.504 -1.296,0.504 z"
       fill="#000000"
       id="path6" />
    <path
       d="m 18.7801,172.2 c -0.88,0 -1.6534,-0.173 -2.32,-0.52 -0.6534,-0.36 -1.16,-0.853 -1.52,-1.48 -0.36,-0.627 -0.54,-1.36 -0.54,-2.2 h 1.8 c 0,0.813 0.2266,1.453 0.68,1.92 0.4666,0.453 1.1066,0.68 1.92,0.68 0.8266,0 1.4666,-0.24 1.92,-0.72 0.4533,-0.48 0.68,-1.107 0.68,-1.88 v -1.04 c 0,-0.827 -0.2267,-1.467 -0.68,-1.92 -0.4534,-0.453 -1.0934,-0.68 -1.92,-0.68 h -1.5 v -1.8 l 3.62,-3.52 h -5.92 v -1.64 h 7.74 v 1.8 l -3.9,3.78 v -0.22 c 1.3333,0 2.3933,0.38 3.18,1.14 0.7866,0.76 1.18,1.78 1.18,3.06 V 168 c 0,0.84 -0.1867,1.573 -0.56,2.2 -0.36,0.627 -0.8734,1.12 -1.54,1.48 -0.6667,0.347 -1.44,0.52 -2.32,0.52 z"
       fill="#000000"
       id="path7" />
    <path
       d="m 55.0401,101 v -1.968 h 4.68 v -9.264 h -4.08 V 87.8 h 6.24 v 11.232 h 4.44 V 101 Z m 5.52,-15.576 c -0.528,0 -0.944,-0.136 -1.248,-0.408 -0.304,-0.272 -0.456,-0.64 -0.456,-1.104 0,-0.48 0.152,-0.856 0.456,-1.128 0.304,-0.288 0.72,-0.432 1.248,-0.432 0.528,0 0.944,0.144 1.248,0.432 0.304,0.272 0.456,0.648 0.456,1.128 0,0.464 -0.152,0.832 -0.456,1.104 -0.304,0.272 -0.72,0.408 -1.248,0.408 z M 69.5987,101 V 87.8 h 2.16 v 2.52 h 0.456 l -0.456,0.504 c 0,-1.04 0.312,-1.84 0.936,-2.4 0.624,-0.576 1.488,-0.864 2.592,-0.864 1.328,0 2.384,0.408 3.168,1.224 0.784,0.816 1.176,1.928 1.176,3.336 V 101 h -2.16 v -8.64 c 0,-0.944 -0.256,-1.664 -0.768,-2.16 -0.496,-0.512 -1.176,-0.768 -2.04,-0.768 -0.896,0 -1.608,0.272 -2.136,0.816 -0.512,0.544 -0.768,1.328 -0.768,2.352 v 8.4 z m 20.8226,0 c -1.136,0 -2.024,-0.304 -2.664,-0.912 -0.624,-0.608 -0.936,-1.464 -0.936,-2.568 v -7.752 h -3.72 V 87.8 h 3.72 v -3.72 h 2.16 v 3.72 h 5.28 v 1.968 h -5.28 v 7.752 c 0,1.008 0.48,1.512 1.44,1.512 h 3.6 V 101 Z m 21.3417,0 4.68,-6.792 -4.392,-6.408 h 2.544 l 2.616,4.08 c 0.112,0.176 0.216,0.368 0.312,0.576 0.112,0.208 0.2,0.376 0.264,0.504 0.048,-0.128 0.12,-0.296 0.216,-0.504 0.112,-0.208 0.224,-0.4 0.336,-0.576 l 2.64,-4.08 h 2.52 l -4.392,6.432 4.656,6.768 h -2.544 l -2.832,-4.32 c -0.112,-0.176 -0.224,-0.376 -0.336,-0.6 -0.096,-0.24 -0.184,-0.432 -0.264,-0.576 -0.064,0.144 -0.16,0.336 -0.288,0.576 -0.112,0.224 -0.232,0.424 -0.36,0.6 l -2.856,4.32 z m 17.27,3.84 1.92,-7.464 h 3.12 l -3.12,7.464 z m 2.88,-13.68 c -0.528,0 -0.96,-0.168 -1.296,-0.504 -0.336,-0.336 -0.504,-0.768 -0.504,-1.296 0,-0.512 0.168,-0.936 0.504,-1.272 0.352,-0.352 0.784,-0.528 1.296,-0.528 h 0.48 c 0.512,0 0.936,0.176 1.272,0.528 0.352,0.336 0.528,0.76 0.528,1.272 0,0.528 -0.168,0.96 -0.504,1.296 -0.336,0.336 -0.768,0.504 -1.296,0.504 z"
       fill="#000000"
       id="path8" />
    <path
       d="m 14.8401,99 v -1.84 l 4.46,-4.74 c 0.76,-0.8133 1.3133,-1.5333 1.66,-2.16 0.3466,-0.64 0.52,-1.2533 0.52,-1.84 0,-0.8133 -0.2267,-1.4533 -0.68,-1.92 -0.44,-0.4667 -1.0467,-0.7 -1.82,-0.7 -0.8534,0 -1.5267,0.24 -2.02,0.72 -0.48,0.48 -0.72,1.14 -0.72,1.98 h -1.8 c 0.0266,-0.88 0.2266,-1.64 0.6,-2.28 0.3866,-0.6533 0.9133,-1.1533 1.58,-1.5 0.68,-0.3467 1.4666,-0.52 2.36,-0.52 0.88,0 1.64,0.1733 2.28,0.52 0.6533,0.3333 1.1533,0.8133 1.5,1.44 0.3466,0.6267 0.52,1.3733 0.52,2.24 0,0.8267 -0.22,1.6467 -0.66,2.46 -0.44,0.8133 -1.16,1.74 -2.16,2.78 l -3.6,3.72 h 6.66 V 99 Z"
       fill="#000000"
       id="path9" />
    <path
       d="m 60.2001,248.24 c -1.04,0 -1.952,-0.208 -2.736,-0.624 -0.768,-0.416 -1.368,-1 -1.8,-1.752 -0.416,-0.768 -0.624,-1.656 -0.624,-2.664 v -3.6 c 0,-1.024 0.208,-1.912 0.624,-2.664 0.432,-0.752 1.032,-1.336 1.8,-1.752 0.784,-0.416 1.696,-0.624 2.736,-0.624 1.04,0 1.944,0.208 2.712,0.624 0.784,0.416 1.384,1 1.8,1.752 0.432,0.752 0.648,1.64 0.648,2.664 v 2.328 h -8.208 v 1.272 c 0,1.04 0.264,1.84 0.792,2.4 0.528,0.544 1.28,0.816 2.256,0.816 0.832,0 1.504,-0.144 2.016,-0.432 0.512,-0.304 0.824,-0.752 0.936,-1.344 h 2.16 c -0.144,1.104 -0.688,1.984 -1.632,2.64 -0.928,0.64 -2.088,0.96 -3.48,0.96 z m 3.048,-7.752 V 239.6 c 0,-1.04 -0.264,-1.84 -0.792,-2.4 -0.512,-0.56 -1.264,-0.84 -2.256,-0.84 -0.976,0 -1.728,0.28 -2.256,0.84 -0.528,0.56 -0.792,1.36 -0.792,2.4 v 0.696 h 6.264 z M 69.5987,248 v -13.2 h 2.16 v 2.52 h 0.456 l -0.456,0.504 c 0,-1.04 0.312,-1.84 0.936,-2.4 0.624,-0.576 1.488,-0.864 2.592,-0.864 1.328,0 2.384,0.408 3.168,1.224 0.784,0.816 1.176,1.928 1.176,3.336 V 248 h -2.16 v -8.64 c 0,-0.944 -0.256,-1.664 -0.768,-2.16 -0.496,-0.512 -1.176,-0.768 -2.04,-0.768 -0.896,0 -1.608,0.272 -2.136,0.816 -0.512,0.544 -0.768,1.328 -0.768,2.352 v 8.4 z m 18.6146,0.24 c -1.312,0 -2.376,-0.44 -3.192,-1.32 -0.8,-0.88 -1.2,-2.072 -1.2,-3.576 v -3.864 c 0,-1.52 0.4,-2.72 1.2,-3.6 0.8,-0.88 1.864,-1.32 3.192,-1.32 1.088,0 1.96,0.296 2.616,0.888 0.656,0.592 0.984,1.384 0.984,2.376 l -0.432,-0.504 h 0.48 l -0.048,-3 v -3.84 h 2.16 V 248 h -2.16 v -2.52 h -0.432 l 0.432,-0.504 c 0,1.008 -0.328,1.808 -0.984,2.4 -0.656,0.576 -1.528,0.864 -2.616,0.864 z m 0.72,-1.872 c 0.896,0 1.6,-0.28 2.112,-0.84 0.512,-0.56 0.768,-1.336 0.768,-2.328 v -3.6 c 0,-0.992 -0.256,-1.768 -0.768,-2.328 -0.512,-0.56 -1.216,-0.84 -2.112,-0.84 -0.912,0 -1.632,0.272 -2.16,0.816 -0.528,0.544 -0.792,1.328 -0.792,2.352 v 3.6 c 0,1.024 0.264,1.808 0.792,2.352 0.528,0.544 1.248,0.816 2.16,0.816 z"
       fill="#000000"
       id="path10" />
    <path
       d="m 21.2001,245 v -3.2 h -6.6 v -2.82 l 5.78,-8.58 h 1.96 l -5.94,8.96 v 0.8 h 4.8 v -3.56 h 1.8 v 8.4 z"
       fill="#000000"
       id="path11" />
    <path
       d="m 19.0001,73 5.7735,-10 h -11.547 z m -1,-35 v 26 h 2 V 38 Z"
       fill="#000000"
       id="path12" />
    <path
       d="m 19.0001,146 5.7735,-10 h -11.547 z m -1,-35 v 26 h 2 v -26 z"
       fill="#000000"
       id="path13" />
    <path
       d="m 19.0001,219 5.7735,-10 h -11.547 z m -1,-35 v 26 h 2 v -26 z"
       fill="#000000"
       id="path14" />
  </g>
</svg>
