<?xml version="1.0" encoding="UTF-8" standalone="no"?>
<svg
   width="367.39462"
   height="518.13007"
   viewBox="0 0 367.39462 518.13007"
   fill="none"
   version="1.1"
   id="svg33"
   sodipodi:docname="false_positive.svg"
   inkscape:version="1.3.2 (091e20ef0f, 2023-11-25, custom)"
   xmlns:inkscape="http://www.inkscape.org/namespaces/inkscape"
   xmlns:sodipodi="http://sodipodi.sourceforge.net/DTD/sodipodi-0.dtd"
   xmlns="http://www.w3.org/2000/svg"
   xmlns:svg="http://www.w3.org/2000/svg">
  <defs
     id="defs33" />
  <sodipodi:namedview
     id="namedview33"
     pagecolor="#ffffff"
     bordercolor="#000000"
     borderopacity="0.25"
     inkscape:showpageshadow="2"
     inkscape:pageopacity="0.0"
     inkscape:pagecheckerboard="0"
     inkscape:deskcolor="#d1d1d1"
     inkscape:zoom="1.7350855"
     inkscape:cx="108.06384"
     inkscape:cy="277.21976"
     inkscape:window-width="2560"
     inkscape:window-height="1372"
     inkscape:window-x="0"
     inkscape:window-y="0"
     inkscape:window-maximized="1"
     inkscape:current-layer="svg33" />
  <rect
     style="fill:#ffffff;fill-opacity:1;stroke-width:0.955783"
     id="rect33"
     width="367.39462"
     height="518.13007"
     x="0"
     y="0" />
  <g
     id="g33"
     transform="translate(-18.521039,21.065033)">
    <circle
       cx="109"
       cy="19"
       r="18.5"
       fill="#D8E3FF"
       stroke="#000000"
       id="circle1"
       style="fill:none" />
    <circle
       cx="109"
       cy="165"
       r="18.5"
       fill="#ffffff"
       stroke="#000000"
       id="circle2" />
    <circle
       cx="108.949"
       cy="384"
       r="18.5"
       fill="#ffffff"
       stroke="#000000"
       id="circle3" />
    <circle
       cx="109"
       cy="92"
       r="18.5"
       fill="#ffffff"
       stroke="#000000"
       id="circle4" />
    <circle
       cx="109"
       cy="238"
       r="18.5"
       fill="#ffffff"
       stroke="#000000"
       id="circle5" />
    <circle
       cx="108.949"
       cy="311"
       r="18.5"
       fill="#ffffff"
       stroke="#000000"
       id="circle6" />
    <circle
       cx="108.949"
       cy="457"
       r="18.5"
       fill="#ffffff"
       stroke="#000000"
       id="circle7" />
    <path
       d="m 150.968,28.24 c -1.088,0 -1.96,-0.288 -2.616,-0.864 -0.656,-0.592 -0.984,-1.392 -0.984,-2.4 l 0.432,0.504 h -0.432 V 28 h -2.16 V 10.48 h 2.16 v 3.84 l -0.048,3 h 0.48 l -0.432,0.504 c 0,-0.992 0.328,-1.784 0.984,-2.376 0.672,-0.592 1.544,-0.888 2.616,-0.888 1.328,0 2.392,0.44 3.192,1.32 0.8,0.88 1.2,2.08 1.2,3.6 v 3.864 c 0,1.504 -0.4,2.696 -1.2,3.576 -0.8,0.88 -1.864,1.32 -3.192,1.32 z m -0.72,-1.872 c 0.912,0 1.632,-0.272 2.16,-0.816 0.528,-0.544 0.792,-1.328 0.792,-2.352 v -3.6 c 0,-1.024 -0.264,-1.808 -0.792,-2.352 -0.528,-0.544 -1.248,-0.816 -2.16,-0.816 -0.88,0 -1.584,0.28 -2.112,0.84 -0.512,0.56 -0.768,1.336 -0.768,2.328 v 3.6 c 0,0.992 0.256,1.768 0.768,2.328 0.528,0.56 1.232,0.84 2.112,0.84 z m 14.343,1.872 c -1.04,0 -1.952,-0.208 -2.736,-0.624 -0.768,-0.416 -1.368,-1 -1.8,-1.752 -0.416,-0.768 -0.624,-1.656 -0.624,-2.664 v -3.6 c 0,-1.024 0.208,-1.912 0.624,-2.664 0.432,-0.752 1.032,-1.336 1.8,-1.752 0.784,-0.416 1.696,-0.624 2.736,-0.624 1.04,0 1.944,0.208 2.712,0.624 0.784,0.416 1.384,1 1.8,1.752 0.432,0.752 0.648,1.64 0.648,2.664 v 2.328 h -8.208 V 23.2 c 0,1.04 0.264,1.84 0.792,2.4 0.528,0.544 1.28,0.816 2.256,0.816 0.832,0 1.504,-0.144 2.016,-0.432 0.512,-0.304 0.824,-0.752 0.936,-1.344 h 2.16 c -0.144,1.104 -0.688,1.984 -1.632,2.64 -0.928,0.64 -2.088,0.96 -3.48,0.96 z m 3.048,-7.752 V 19.6 c 0,-1.04 -0.264,-1.84 -0.792,-2.4 -0.512,-0.56 -1.264,-0.84 -2.256,-0.84 -0.976,0 -1.728,0.28 -2.256,0.84 -0.528,0.56 -0.792,1.36 -0.792,2.4 v 0.696 h 6.264 z m 8.006,11.832 v -1.968 h 4.2 c 0.672,0 1.16,-0.152 1.464,-0.456 0.32,-0.304 0.48,-0.776 0.48,-1.416 V 26.8 l 0.048,-2.4 h -0.432 l 0.408,-0.36 c 0,0.96 -0.32,1.72 -0.96,2.28 -0.64,0.56 -1.496,0.84 -2.568,0.84 -1.36,0 -2.432,-0.44 -3.216,-1.32 -0.784,-0.896 -1.176,-2.096 -1.176,-3.6 v -2.784 c 0,-1.504 0.392,-2.696 1.176,-3.576 0.784,-0.88 1.856,-1.32 3.216,-1.32 1.072,0 1.928,0.28 2.568,0.84 0.64,0.56 0.96,1.32 0.96,2.28 l -0.408,-0.36 h 0.408 V 14.8 h 2.136 v 13.68 c 0,1.184 -0.368,2.12 -1.104,2.808 -0.72,0.688 -1.728,1.032 -3.024,1.032 z m 3.288,-7.032 c 0.896,0 1.6,-0.28 2.112,-0.84 0.512,-0.56 0.768,-1.336 0.768,-2.328 V 19.6 c 0,-0.992 -0.256,-1.768 -0.768,-2.328 -0.512,-0.56 -1.216,-0.84 -2.112,-0.84 -0.912,0 -1.624,0.272 -2.136,0.816 -0.496,0.544 -0.744,1.328 -0.744,2.352 v 2.52 c 0,1.024 0.248,1.808 0.744,2.352 0.512,0.544 1.224,0.816 2.136,0.816 z M 188.212,28 v -1.968 h 4.68 v -9.264 h -4.08 V 14.8 h 6.24 v 11.232 h 4.44 V 28 Z m 5.52,-15.576 c -0.528,0 -0.944,-0.136 -1.248,-0.408 -0.304,-0.272 -0.456,-0.64 -0.456,-1.104 0,-0.48 0.152,-0.856 0.456,-1.128 0.304,-0.288 0.72,-0.432 1.248,-0.432 0.528,0 0.944,0.144 1.248,0.432 0.304,0.272 0.456,0.648 0.456,1.128 0,0.464 -0.152,0.832 -0.456,1.104 -0.304,0.272 -0.72,0.408 -1.248,0.408 z M 202.771,28 V 14.8 h 2.16 v 2.52 h 0.456 l -0.456,0.504 c 0,-1.04 0.312,-1.84 0.936,-2.4 0.624,-0.576 1.488,-0.864 2.592,-0.864 1.328,0 2.384,0.408 3.168,1.224 0.784,0.816 1.176,1.928 1.176,3.336 V 28 h -2.16 v -8.64 c 0,-0.944 -0.256,-1.664 -0.768,-2.16 -0.496,-0.512 -1.176,-0.768 -2.04,-0.768 -0.896,0 -1.608,0.272 -2.136,0.816 -0.512,0.544 -0.768,1.328 -0.768,2.352 V 28 Z"
       fill="#000000"
       id="path7" />
    <path
       d="m 104.8,26 v -1.64 h 3.96 V 12.9 l -3.96,2.96 v -2 l 3.3,-2.46 h 2.46 v 12.96 h 3.24 V 26 Z"
       fill="#000000"
       id="path8" />
    <path
       d="m 145.04,174 v -1.968 h 4.68 v -9.264 h -4.08 V 160.8 h 6.24 v 11.232 h 4.44 V 174 Z m 5.52,-15.576 c -0.528,0 -0.944,-0.136 -1.248,-0.408 -0.304,-0.272 -0.456,-0.64 -0.456,-1.104 0,-0.48 0.152,-0.856 0.456,-1.128 0.304,-0.288 0.72,-0.432 1.248,-0.432 0.528,0 0.944,0.144 1.248,0.432 0.304,0.272 0.456,0.648 0.456,1.128 0,0.464 -0.152,0.832 -0.456,1.104 -0.304,0.272 -0.72,0.408 -1.248,0.408 z M 162.671,174 v -9.912 h -3.84 v -1.968 h 3.84 v -2.28 c 0,-1.04 0.328,-1.856 0.984,-2.448 0.656,-0.608 1.56,-0.912 2.712,-0.912 h 3.864 v 1.968 h -3.864 c -0.496,0 -0.88,0.12 -1.152,0.36 -0.256,0.224 -0.384,0.568 -0.384,1.032 v 2.28 h 5.4 v 1.968 h -5.4 V 174 Z m 35.141,2.88 c -2.272,-0.56 -4.04,-1.664 -5.304,-3.312 -1.264,-1.648 -1.896,-3.664 -1.896,-6.048 v -4.32 c 0,-1.568 0.288,-2.984 0.864,-4.248 0.592,-1.28 1.424,-2.36 2.496,-3.24 1.088,-0.88 2.368,-1.504 3.84,-1.872 v 2.04 c -1.024,0.24 -1.912,0.704 -2.664,1.392 -0.752,0.672 -1.336,1.512 -1.752,2.52 -0.416,1.008 -0.624,2.144 -0.624,3.408 v 4.32 c 0,1.232 0.2,2.352 0.6,3.36 0.416,1.008 1,1.848 1.752,2.52 0.768,0.656 1.664,1.104 2.688,1.344 z m 4.335,-2.88 v -13.2 h 1.896 v 1.584 h 0.432 l -0.336,0.576 c 0,-0.736 0.192,-1.32 0.576,-1.752 0.4,-0.432 0.936,-0.648 1.608,-0.648 0.736,0 1.304,0.272 1.704,0.816 0.4,0.544 0.6,1.312 0.6,2.304 l -0.648,-1.296 h 1.008 l -0.456,0.576 c 0,-0.736 0.2,-1.32 0.6,-1.752 0.416,-0.432 0.96,-0.648 1.632,-0.648 0.832,0 1.472,0.312 1.92,0.936 0.464,0.624 0.696,1.448 0.696,2.472 V 174 h -1.992 v -10.056 c 0,-0.544 -0.12,-0.968 -0.36,-1.272 -0.224,-0.304 -0.56,-0.456 -1.008,-0.456 -0.432,0 -0.776,0.152 -1.032,0.456 -0.24,0.288 -0.36,0.704 -0.36,1.248 V 174 h -1.728 v -10.056 c 0,-0.56 -0.128,-0.984 -0.384,-1.272 -0.24,-0.304 -0.584,-0.456 -1.032,-0.456 -0.448,0 -0.784,0.152 -1.008,0.456 -0.224,0.288 -0.336,0.704 -0.336,1.248 V 174 Z m 17.078,4.32 1.944,-5.136 -4.896,-12.384 h 2.4 l 3.072,8.16 c 0.112,0.272 0.216,0.6 0.312,0.984 0.096,0.368 0.176,0.68 0.24,0.936 0.064,-0.256 0.144,-0.568 0.24,-0.936 0.096,-0.384 0.192,-0.712 0.288,-0.984 l 2.88,-8.16 h 2.328 l -6.504,17.52 z m 16.911,-4.128 c -0.896,0 -1.68,-0.136 -2.352,-0.408 -0.656,-0.288 -1.184,-0.688 -1.584,-1.2 -0.384,-0.512 -0.616,-1.12 -0.696,-1.824 h 2.16 c 0.096,0.464 0.352,0.832 0.768,1.104 0.432,0.272 1,0.408 1.704,0.408 h 1.008 c 0.848,0 1.48,-0.168 1.896,-0.504 0.416,-0.352 0.624,-0.816 0.624,-1.392 0,-0.56 -0.192,-1 -0.576,-1.32 -0.368,-0.336 -0.92,-0.56 -1.656,-0.672 l -1.776,-0.288 c -1.296,-0.224 -2.264,-0.624 -2.904,-1.2 -0.624,-0.592 -0.936,-1.448 -0.936,-2.568 0,-1.184 0.376,-2.096 1.128,-2.736 0.752,-0.656 1.88,-0.984 3.384,-0.984 h 0.912 c 1.264,0 2.28,0.296 3.048,0.888 0.768,0.592 1.232,1.392 1.392,2.4 h -2.16 c -0.096,-0.416 -0.336,-0.744 -0.72,-0.984 -0.384,-0.256 -0.904,-0.384 -1.56,-0.384 h -0.912 c -0.816,0 -1.416,0.152 -1.8,0.456 -0.368,0.304 -0.552,0.76 -0.552,1.368 0,0.544 0.16,0.944 0.48,1.2 0.32,0.256 0.824,0.44 1.512,0.552 l 1.776,0.288 c 1.424,0.224 2.456,0.64 3.096,1.248 0.656,0.608 0.984,1.488 0.984,2.64 0,1.216 -0.392,2.176 -1.176,2.88 -0.768,0.688 -1.936,1.032 -3.504,1.032 z M 252.374,174 c -1.136,0 -2.024,-0.304 -2.664,-0.912 -0.624,-0.608 -0.936,-1.464 -0.936,-2.568 v -7.752 h -3.72 V 160.8 h 3.72 v -3.72 h 2.16 v 3.72 h 5.28 v 1.968 h -5.28 v 7.752 c 0,1.008 0.48,1.512 1.44,1.512 h 3.6 V 174 Z m 12.951,0.24 c -1.04,0 -1.952,-0.208 -2.736,-0.624 -0.768,-0.416 -1.368,-1 -1.8,-1.752 -0.416,-0.768 -0.624,-1.656 -0.624,-2.664 v -3.6 c 0,-1.024 0.208,-1.912 0.624,-2.664 0.432,-0.752 1.032,-1.336 1.8,-1.752 0.784,-0.416 1.696,-0.624 2.736,-0.624 1.04,0 1.944,0.208 2.712,0.624 0.784,0.416 1.384,1 1.8,1.752 0.432,0.752 0.648,1.64 0.648,2.664 v 2.328 h -8.208 v 1.272 c 0,1.04 0.264,1.84 0.792,2.4 0.528,0.544 1.28,0.816 2.256,0.816 0.832,0 1.504,-0.144 2.016,-0.432 0.512,-0.304 0.824,-0.752 0.936,-1.344 h 2.16 c -0.144,1.104 -0.688,1.984 -1.632,2.64 -0.928,0.64 -2.088,0.96 -3.48,0.96 z m 3.048,-7.752 V 165.6 c 0,-1.04 -0.264,-1.84 -0.792,-2.4 -0.512,-0.56 -1.264,-0.84 -2.256,-0.84 -0.976,0 -1.728,0.28 -2.256,0.84 -0.528,0.56 -0.792,1.36 -0.792,2.4 v 0.696 h 6.264 z M 275.18,174 v -13.2 h 2.112 v 2.52 h 0.504 l -0.696,1.56 c 0,-1.424 0.304,-2.496 0.912,-3.216 0.624,-0.736 1.544,-1.104 2.76,-1.104 1.392,0 2.496,0.44 3.312,1.32 0.832,0.864 1.248,2.04 1.248,3.528 v 0.792 h -2.16 v -0.6 c 0,-1.04 -0.256,-1.832 -0.768,-2.376 -0.496,-0.56 -1.208,-0.84 -2.136,-0.84 -0.912,0 -1.632,0.28 -2.16,0.84 -0.512,0.56 -0.768,1.352 -0.768,2.376 v 8.4 z m 15.998,4.32 1.944,-5.136 -4.896,-12.384 h 2.4 l 3.072,8.16 c 0.112,0.272 0.216,0.6 0.312,0.984 0.096,0.368 0.176,0.68 0.24,0.936 0.064,-0.256 0.144,-0.568 0.24,-0.936 0.096,-0.384 0.192,-0.712 0.288,-0.984 l 2.88,-8.16 h 2.328 l -6.504,17.52 z m 12.879,-1.44 v -2.136 c 1.04,-0.24 1.936,-0.688 2.688,-1.344 0.752,-0.672 1.328,-1.512 1.728,-2.52 0.416,-1.008 0.624,-2.128 0.624,-3.36 v -4.32 c 0,-1.264 -0.208,-2.4 -0.624,-3.408 -0.416,-1.008 -1,-1.848 -1.752,-2.52 -0.752,-0.688 -1.64,-1.152 -2.664,-1.392 v -2.04 c 1.488,0.368 2.768,0.992 3.84,1.872 1.072,0.88 1.896,1.96 2.472,3.24 0.592,1.264 0.888,2.68 0.888,4.248 v 4.32 c 0,2.384 -0.632,4.4 -1.896,6.048 -1.264,1.648 -3.032,2.752 -5.304,3.312 z"
       fill="#000000"
       id="path9" />
    <path
       d="m 108.78,172.2 c -0.88,0 -1.653,-0.173 -2.32,-0.52 -0.653,-0.36 -1.16,-0.853 -1.52,-1.48 -0.36,-0.627 -0.54,-1.36 -0.54,-2.2 h 1.8 c 0,0.813 0.227,1.453 0.68,1.92 0.467,0.453 1.107,0.68 1.92,0.68 0.827,0 1.467,-0.24 1.92,-0.72 0.453,-0.48 0.68,-1.107 0.68,-1.88 v -1.04 c 0,-0.827 -0.227,-1.467 -0.68,-1.92 -0.453,-0.453 -1.093,-0.68 -1.92,-0.68 h -1.5 v -1.8 l 3.62,-3.52 H 105 v -1.64 h 7.74 v 1.8 l -3.9,3.78 v -0.22 c 1.333,0 2.393,0.38 3.18,1.14 0.787,0.76 1.18,1.78 1.18,3.06 V 168 c 0,0.84 -0.187,1.573 -0.56,2.2 -0.36,0.627 -0.873,1.12 -1.54,1.48 -0.667,0.347 -1.44,0.52 -2.32,0.52 z"
       fill="#000000"
       id="path10" />
    <path
       d="M 145.157,397.32 V 379.8 h 2.16 v 2.52 h 0.432 l -0.432,0.504 c 0,-1.008 0.328,-1.8 0.984,-2.376 0.672,-0.592 1.552,-0.888 2.64,-0.888 1.328,0 2.384,0.44 3.168,1.32 0.8,0.864 1.2,2.056 1.2,3.576 v 3.864 c 0,1.008 -0.184,1.88 -0.552,2.616 -0.352,0.736 -0.856,1.304 -1.512,1.704 -0.64,0.4 -1.408,0.6 -2.304,0.6 -1.072,0 -1.944,-0.296 -2.616,-0.888 -0.672,-0.592 -1.008,-1.384 -1.008,-2.376 l 0.432,0.504 h -0.48 l 0.048,3 v 3.84 z m 5.064,-5.952 c 0.912,0 1.624,-0.272 2.136,-0.816 0.528,-0.544 0.792,-1.328 0.792,-2.352 v -3.6 c 0,-1.024 -0.264,-1.808 -0.792,-2.352 -0.512,-0.544 -1.224,-0.816 -2.136,-0.816 -0.88,0 -1.584,0.28 -2.112,0.84 -0.528,0.56 -0.792,1.336 -0.792,2.328 v 3.6 c 0,0.992 0.264,1.768 0.792,2.328 0.528,0.56 1.232,0.84 2.112,0.84 z m 9.783,1.632 v -13.2 h 2.112 v 2.52 h 0.504 l -0.696,1.56 c 0,-1.424 0.304,-2.496 0.912,-3.216 0.624,-0.736 1.544,-1.104 2.76,-1.104 1.392,0 2.496,0.44 3.312,1.32 0.832,0.864 1.248,2.04 1.248,3.528 v 0.792 h -2.16 v -0.6 c 0,-1.04 -0.256,-1.832 -0.768,-2.376 -0.496,-0.56 -1.208,-0.84 -2.136,-0.84 -0.912,0 -1.632,0.28 -2.16,0.84 -0.512,0.56 -0.768,1.352 -0.768,2.376 v 8.4 z m 13.766,0 v -1.968 h 4.68 v -9.264 h -4.08 V 379.8 h 6.24 v 11.232 h 4.44 V 393 Z m 5.52,-15.576 c -0.528,0 -0.944,-0.136 -1.248,-0.408 -0.304,-0.272 -0.456,-0.64 -0.456,-1.104 0,-0.48 0.152,-0.856 0.456,-1.128 0.304,-0.288 0.72,-0.432 1.248,-0.432 0.528,0 0.944,0.144 1.248,0.432 0.304,0.272 0.456,0.648 0.456,1.128 0,0.464 -0.152,0.832 -0.456,1.104 -0.304,0.272 -0.72,0.408 -1.248,0.408 z M 188.329,393 v -13.2 h 2.16 v 2.52 h 0.456 l -0.456,0.504 c 0,-1.04 0.312,-1.84 0.936,-2.4 0.624,-0.576 1.488,-0.864 2.592,-0.864 1.328,0 2.384,0.408 3.168,1.224 0.784,0.816 1.176,1.928 1.176,3.336 V 393 h -2.16 v -8.64 c 0,-0.944 -0.256,-1.664 -0.768,-2.16 -0.496,-0.512 -1.176,-0.768 -2.04,-0.768 -0.896,0 -1.608,0.272 -2.136,0.816 -0.512,0.544 -0.768,1.328 -0.768,2.352 v 8.4 z m 20.823,0 c -1.136,0 -2.024,-0.304 -2.664,-0.912 -0.624,-0.608 -0.936,-1.464 -0.936,-2.568 v -7.752 h -3.72 V 379.8 h 3.72 v -3.72 h 2.16 v 3.72 h 5.28 v 1.968 h -5.28 v 7.752 c 0,1.008 0.48,1.512 1.44,1.512 h 3.6 V 393 Z m 11.03,0 v -9.912 h -3.84 v -1.968 h 3.84 v -2.28 c 0,-1.04 0.328,-1.856 0.984,-2.448 0.656,-0.608 1.56,-0.912 2.712,-0.912 h 3.864 v 1.968 h -3.864 c -0.496,0 -0.88,0.12 -1.152,0.36 -0.256,0.224 -0.384,0.568 -0.384,1.032 v 2.28 h 5.4 v 1.968 h -5.4 V 393 Z m 20.751,2.88 c -2.272,-0.56 -4.04,-1.664 -5.304,-3.312 -1.264,-1.648 -1.896,-3.664 -1.896,-6.048 v -4.32 c 0,-1.568 0.288,-2.984 0.864,-4.248 0.592,-1.28 1.424,-2.36 2.496,-3.24 1.088,-0.88 2.368,-1.504 3.84,-1.872 v 2.04 c -1.024,0.24 -1.912,0.704 -2.664,1.392 -0.752,0.672 -1.336,1.512 -1.752,2.52 -0.416,1.008 -0.624,2.144 -0.624,3.408 v 4.32 c 0,1.232 0.2,2.352 0.6,3.36 0.416,1.008 1,1.848 1.752,2.52 0.768,0.656 1.664,1.104 2.688,1.344 z m 10.07,-14.04 3.12,-7.464 h 1.92 l -1.92,7.464 z m -5.52,0 3.12,-7.464 h 1.92 l -1.92,7.464 z M 258.41,393 270.362,375.48 h 1.776 L 260.186,393 Z m 10.344,0.12 c -1.008,0 -1.816,-0.288 -2.424,-0.864 -0.608,-0.576 -0.912,-1.368 -0.912,-2.376 v -1.56 c 0,-1.008 0.304,-1.8 0.912,-2.376 0.608,-0.576 1.416,-0.864 2.424,-0.864 1.008,0 1.816,0.288 2.424,0.864 0.608,0.576 0.912,1.368 0.912,2.376 v 1.56 c 0,1.008 -0.304,1.8 -0.912,2.376 -0.608,0.576 -1.416,0.864 -2.424,0.864 z m 0,-1.656 c 1.04,0 1.56,-0.528 1.56,-1.584 v -1.56 c 0,-1.072 -0.52,-1.608 -1.56,-1.608 -1.04,0 -1.56,0.536 -1.56,1.608 v 1.56 c 0,1.056 0.52,1.584 1.56,1.584 z m -6.96,-8.064 c -1.008,0 -1.816,-0.288 -2.424,-0.864 -0.608,-0.576 -0.912,-1.368 -0.912,-2.376 v -1.56 c 0,-1.008 0.304,-1.8 0.912,-2.376 0.608,-0.576 1.416,-0.864 2.424,-0.864 1.008,0 1.816,0.288 2.424,0.864 0.608,0.576 0.912,1.368 0.912,2.376 v 1.56 c 0,1.008 -0.304,1.8 -0.912,2.376 -0.608,0.576 -1.416,0.864 -2.424,0.864 z m 0,-1.632 c 1.04,0 1.56,-0.536 1.56,-1.608 v -1.56 c 0,-1.072 -0.52,-1.608 -1.56,-1.608 -0.512,0 -0.904,0.136 -1.176,0.408 -0.256,0.256 -0.384,0.656 -0.384,1.2 v 1.56 c 0,0.544 0.128,0.952 0.384,1.224 0.272,0.256 0.664,0.384 1.176,0.384 z m 17.103,11.472 c -1.312,0 -2.376,-0.44 -3.192,-1.32 -0.8,-0.88 -1.2,-2.072 -1.2,-3.576 v -3.864 c 0,-1.52 0.4,-2.72 1.2,-3.6 0.8,-0.88 1.864,-1.32 3.192,-1.32 1.088,0 1.96,0.296 2.616,0.888 0.656,0.592 0.984,1.384 0.984,2.376 l -0.432,-0.504 h 0.48 l -0.048,-3 v -3.84 h 2.16 V 393 h -2.16 v -2.52 h -0.432 l 0.432,-0.504 c 0,1.008 -0.328,1.808 -0.984,2.4 -0.656,0.576 -1.528,0.864 -2.616,0.864 z m 0.72,-1.872 c 0.896,0 1.6,-0.28 2.112,-0.84 0.512,-0.56 0.768,-1.336 0.768,-2.328 v -3.6 c 0,-0.992 -0.256,-1.768 -0.768,-2.328 -0.512,-0.56 -1.216,-0.84 -2.112,-0.84 -0.912,0 -1.632,0.272 -2.16,0.816 -0.528,0.544 -0.792,1.328 -0.792,2.352 v 3.6 c 0,1.024 0.264,1.808 0.792,2.352 0.528,0.544 1.248,0.816 2.16,0.816 z m 14.798,-9.528 1.92,-7.464 h 3.12 l -3.12,7.464 z m -5.52,0 1.92,-7.464 h 3.12 l -3.12,7.464 z m 16.311,15 1.92,-7.464 h 3.12 l -3.12,7.464 z m 26.021,-3.84 4.68,-6.792 -4.392,-6.408 h 2.544 l 2.616,4.08 c 0.112,0.176 0.216,0.368 0.312,0.576 0.112,0.208 0.2,0.376 0.264,0.504 0.048,-0.128 0.12,-0.296 0.216,-0.504 0.112,-0.208 0.224,-0.4 0.336,-0.576 l 2.64,-4.08 h 2.52 l -4.392,6.432 4.656,6.768 h -2.544 l -2.832,-4.32 c -0.112,-0.176 -0.224,-0.376 -0.336,-0.6 -0.096,-0.24 -0.184,-0.432 -0.264,-0.576 -0.064,0.144 -0.16,0.336 -0.288,0.576 -0.112,0.224 -0.232,0.424 -0.36,0.6 l -2.856,4.32 z m 15.951,2.88 v -2.136 c 1.04,-0.24 1.936,-0.688 2.688,-1.344 0.752,-0.672 1.328,-1.512 1.728,-2.52 0.416,-1.008 0.624,-2.128 0.624,-3.36 v -4.32 c 0,-1.264 -0.208,-2.4 -0.624,-3.408 -0.416,-1.008 -1,-1.848 -1.752,-2.52 -0.752,-0.688 -1.64,-1.152 -2.664,-1.392 v -2.04 c 1.488,0.368 2.768,0.992 3.84,1.872 1.072,0.88 1.896,1.96 2.472,3.24 0.592,1.264 0.888,2.68 0.888,4.248 v 4.32 c 0,2.384 -0.632,4.4 -1.896,6.048 -1.264,1.648 -3.032,2.752 -5.304,3.312 z"
       fill="#000000"
       id="path11" />
    <path
       d="m 108.969,391.2 c -0.933,0 -1.753,-0.193 -2.46,-0.58 -0.693,-0.4 -1.233,-0.953 -1.62,-1.66 -0.387,-0.707 -0.58,-1.527 -0.58,-2.46 0,-0.733 0.1,-1.453 0.3,-2.16 0.213,-0.707 0.527,-1.387 0.94,-2.04 l 3.66,-5.9 h 2 l -4.14,6.64 0.08,0.06 c 0.253,-0.373 0.6,-0.66 1.04,-0.86 0.44,-0.2 0.933,-0.3 1.48,-0.3 0.8,0 1.493,0.187 2.08,0.56 0.587,0.373 1.04,0.9 1.36,1.58 0.32,0.68 0.48,1.487 0.48,2.42 0,0.933 -0.193,1.753 -0.58,2.46 -0.387,0.707 -0.927,1.26 -1.62,1.66 -0.68,0.387 -1.487,0.58 -2.42,0.58 z m -0.02,-1.6 c 0.853,0 1.54,-0.28 2.06,-0.84 0.52,-0.573 0.78,-1.327 0.78,-2.26 0,-0.933 -0.26,-1.68 -0.78,-2.24 -0.52,-0.573 -1.207,-0.86 -2.06,-0.86 -0.853,0 -1.54,0.287 -2.06,0.86 -0.52,0.56 -0.78,1.307 -0.78,2.24 0,0.933 0.26,1.687 0.78,2.26 0.52,0.56 1.207,0.84 2.06,0.84 z"
       fill="#000000"
       id="path12" />
    <path
       d="m 145.04,101 v -1.968 h 4.68 v -9.264 h -4.08 V 87.8 h 6.24 v 11.232 h 4.44 V 101 Z m 5.52,-15.576 c -0.528,0 -0.944,-0.136 -1.248,-0.408 -0.304,-0.272 -0.456,-0.64 -0.456,-1.104 0,-0.48 0.152,-0.856 0.456,-1.128 0.304,-0.288 0.72,-0.432 1.248,-0.432 0.528,0 0.944,0.144 1.248,0.432 0.304,0.272 0.456,0.648 0.456,1.128 0,0.464 -0.152,0.832 -0.456,1.104 -0.304,0.272 -0.72,0.408 -1.248,0.408 z M 159.599,101 V 87.8 h 2.16 v 2.52 h 0.456 l -0.456,0.504 c 0,-1.04 0.312,-1.84 0.936,-2.4 0.624,-0.576 1.488,-0.864 2.592,-0.864 1.328,0 2.384,0.408 3.168,1.224 0.784,0.816 1.176,1.928 1.176,3.336 V 101 h -2.16 v -8.64 c 0,-0.944 -0.256,-1.664 -0.768,-2.16 -0.496,-0.512 -1.176,-0.768 -2.04,-0.768 -0.896,0 -1.608,0.272 -2.136,0.816 -0.512,0.544 -0.768,1.328 -0.768,2.352 v 8.4 z m 20.822,0 c -1.136,0 -2.024,-0.304 -2.664,-0.912 -0.624,-0.608 -0.936,-1.464 -0.936,-2.568 v -7.752 h -3.72 V 87.8 h 3.72 v -3.72 h 2.16 v 3.72 h 5.28 v 1.968 h -5.28 v 7.752 c 0,1.008 0.48,1.512 1.44,1.512 h 3.6 V 101 Z m 21.342,0 4.68,-6.792 -4.392,-6.408 h 2.544 l 2.616,4.08 c 0.112,0.176 0.216,0.368 0.312,0.576 0.112,0.208 0.2,0.376 0.264,0.504 0.048,-0.128 0.12,-0.296 0.216,-0.504 0.112,-0.208 0.224,-0.4 0.336,-0.576 l 2.64,-4.08 h 2.52 l -4.392,6.432 4.656,6.768 h -2.544 l -2.832,-4.32 c -0.112,-0.176 -0.224,-0.376 -0.336,-0.6 -0.096,-0.24 -0.184,-0.432 -0.264,-0.576 -0.064,0.144 -0.16,0.336 -0.288,0.576 -0.112,0.224 -0.232,0.424 -0.36,0.6 l -2.856,4.32 z m 17.27,3.84 1.92,-7.464 h 3.12 l -3.12,7.464 z m 2.88,-13.68 c -0.528,0 -0.96,-0.168 -1.296,-0.504 -0.336,-0.336 -0.504,-0.768 -0.504,-1.296 0,-0.512 0.168,-0.936 0.504,-1.272 0.352,-0.352 0.784,-0.528 1.296,-0.528 h 0.48 c 0.512,0 0.936,0.176 1.272,0.528 0.352,0.336 0.528,0.76 0.528,1.272 0,0.528 -0.168,0.96 -0.504,1.296 -0.336,0.336 -0.768,0.504 -1.296,0.504 z"
       fill="#000000"
       id="path13" />
    <path
       d="m 104.84,99 v -1.84 l 4.46,-4.74 c 0.76,-0.8133 1.313,-1.5333 1.66,-2.16 0.347,-0.64 0.52,-1.2533 0.52,-1.84 0,-0.8133 -0.227,-1.4533 -0.68,-1.92 -0.44,-0.4667 -1.047,-0.7 -1.82,-0.7 -0.853,0 -1.527,0.24 -2.02,0.72 -0.48,0.48 -0.72,1.14 -0.72,1.98 h -1.8 c 0.027,-0.88 0.227,-1.64 0.6,-2.28 0.387,-0.6533 0.913,-1.1533 1.58,-1.5 0.68,-0.3467 1.467,-0.52 2.36,-0.52 0.88,0 1.64,0.1733 2.28,0.52 0.653,0.3333 1.153,0.8133 1.5,1.44 0.347,0.6267 0.52,1.3733 0.52,2.24 0,0.8267 -0.22,1.6467 -0.66,2.46 -0.44,0.8133 -1.16,1.74 -2.16,2.78 l -3.6,3.72 h 6.66 V 99 Z"
       fill="#000000"
       id="path14" />
    <path
       d="m 144.2,248 4.68,-6.792 -4.392,-6.408 h 2.544 l 2.616,4.08 c 0.112,0.176 0.216,0.368 0.312,0.576 0.112,0.208 0.2,0.376 0.264,0.504 0.048,-0.128 0.12,-0.296 0.216,-0.504 0.112,-0.208 0.224,-0.4 0.336,-0.576 l 2.64,-4.08 h 2.52 l -4.392,6.432 4.656,6.768 h -2.544 l -2.832,-4.32 c -0.112,-0.176 -0.224,-0.376 -0.336,-0.6 -0.096,-0.24 -0.184,-0.432 -0.264,-0.576 -0.064,0.144 -0.16,0.336 -0.288,0.576 -0.112,0.224 -0.232,0.424 -0.36,0.6 L 146.72,248 Z m 29.621,-9.84 v -1.92 h 10.32 v 1.92 z m 0,5.76 V 242 h 10.32 v 1.92 z m 33.894,4.32 c -1.424,0 -2.592,-0.368 -3.504,-1.104 -0.912,-0.736 -1.448,-1.728 -1.608,-2.976 h 2.16 c 0.08,0.688 0.376,1.224 0.888,1.608 0.512,0.368 1.208,0.552 2.088,0.552 1.008,0 1.76,-0.272 2.256,-0.816 0.512,-0.544 0.768,-1.312 0.768,-2.304 v -1.704 c 0,-0.992 -0.256,-1.76 -0.768,-2.304 -0.496,-0.544 -1.24,-0.816 -2.232,-0.816 -0.624,0 -1.168,0.168 -1.632,0.504 -0.464,0.32 -0.8,0.752 -1.008,1.296 h -2.16 l 0.12,-9.696 h 9.216 v 1.968 h -7.128 l -0.072,5.832 h 0.672 l -0.672,0.624 c 0,-0.752 0.296,-1.344 0.888,-1.776 0.608,-0.432 1.416,-0.648 2.424,-0.648 1.424,-0.016 2.528,0.424 3.312,1.32 0.8,0.88 1.2,2.112 1.2,3.696 v 1.704 c 0,1.552 -0.456,2.784 -1.368,3.696 -0.912,0.896 -2.192,1.344 -3.84,1.344 z m 11.318,3.6 1.92,-7.464 h 3.12 l -3.12,7.464 z m 2.88,-13.68 c -0.528,0 -0.96,-0.168 -1.296,-0.504 -0.336,-0.336 -0.504,-0.768 -0.504,-1.296 0,-0.512 0.168,-0.936 0.504,-1.272 0.352,-0.352 0.784,-0.528 1.296,-0.528 h 0.48 c 0.512,0 0.936,0.176 1.272,0.528 0.352,0.336 0.528,0.76 0.528,1.272 0,0.528 -0.168,0.96 -0.504,1.296 -0.336,0.336 -0.768,0.504 -1.296,0.504 z"
       fill="#000000"
       id="path15" />
    <path
       d="m 111.2,245 v -3.2 h -6.6 v -2.82 l 5.78,-8.58 h 1.96 l -5.94,8.96 v 0.8 h 4.8 v -3.56 h 1.8 v 8.4 z"
       fill="#000000"
       id="path16" />
    <path
       d="m 144.989,320 v -1.968 h 4.68 v -9.264 h -4.08 V 306.8 h 6.24 v 11.232 h 4.44 V 320 Z m 5.52,-15.576 c -0.528,0 -0.944,-0.136 -1.248,-0.408 -0.304,-0.272 -0.456,-0.64 -0.456,-1.104 0,-0.48 0.152,-0.856 0.456,-1.128 0.304,-0.288 0.72,-0.432 1.248,-0.432 0.528,0 0.944,0.144 1.248,0.432 0.304,0.272 0.456,0.648 0.456,1.128 0,0.464 -0.152,0.832 -0.456,1.104 -0.304,0.272 -0.72,0.408 -1.248,0.408 z M 162.62,320 v -9.912 h -3.84 v -1.968 h 3.84 v -2.28 c 0,-1.04 0.328,-1.856 0.984,-2.448 0.656,-0.608 1.56,-0.912 2.712,-0.912 h 3.864 v 1.968 h -3.864 c -0.496,0 -0.88,0.12 -1.152,0.36 -0.256,0.224 -0.384,0.568 -0.384,1.032 v 2.28 h 5.4 v 1.968 h -5.4 V 320 Z m 35.141,2.88 c -2.272,-0.56 -4.04,-1.664 -5.304,-3.312 -1.264,-1.648 -1.896,-3.664 -1.896,-6.048 v -4.32 c 0,-1.568 0.288,-2.984 0.864,-4.248 0.592,-1.28 1.424,-2.36 2.496,-3.24 1.088,-0.88 2.368,-1.504 3.84,-1.872 v 2.04 c -1.024,0.24 -1.912,0.704 -2.664,1.392 -0.752,0.672 -1.336,1.512 -1.752,2.52 -0.416,1.008 -0.624,2.144 -0.624,3.408 v 4.32 c 0,1.232 0.2,2.352 0.6,3.36 0.416,1.008 1,1.848 1.752,2.52 0.768,0.656 1.664,1.104 2.688,1.344 z m 4.335,-2.88 v -13.2 h 1.896 v 1.584 h 0.432 l -0.336,0.576 c 0,-0.736 0.192,-1.32 0.576,-1.752 0.4,-0.432 0.936,-0.648 1.608,-0.648 0.736,0 1.304,0.272 1.704,0.816 0.4,0.544 0.6,1.312 0.6,2.304 l -0.648,-1.296 h 1.008 l -0.456,0.576 c 0,-0.736 0.2,-1.32 0.6,-1.752 0.416,-0.432 0.96,-0.648 1.632,-0.648 0.832,0 1.472,0.312 1.92,0.936 0.464,0.624 0.696,1.448 0.696,2.472 V 320 h -1.992 v -10.056 c 0,-0.544 -0.12,-0.968 -0.36,-1.272 -0.224,-0.304 -0.56,-0.456 -1.008,-0.456 -0.432,0 -0.776,0.152 -1.032,0.456 -0.24,0.288 -0.36,0.704 -0.36,1.248 V 320 h -1.728 v -10.056 c 0,-0.56 -0.128,-0.984 -0.384,-1.272 -0.24,-0.304 -0.584,-0.456 -1.032,-0.456 -0.448,0 -0.784,0.152 -1.008,0.456 -0.224,0.288 -0.336,0.704 -0.336,1.248 V 320 Z m 17.078,4.32 1.944,-5.136 -4.896,-12.384 h 2.4 l 3.072,8.16 c 0.112,0.272 0.216,0.6 0.312,0.984 0.096,0.368 0.176,0.68 0.24,0.936 0.064,-0.256 0.144,-0.568 0.24,-0.936 0.096,-0.384 0.192,-0.712 0.288,-0.984 l 2.88,-8.16 h 2.328 l -6.504,17.52 z m 16.911,-4.128 c -0.896,0 -1.68,-0.136 -2.352,-0.408 -0.656,-0.288 -1.184,-0.688 -1.584,-1.2 -0.384,-0.512 -0.616,-1.12 -0.696,-1.824 h 2.16 c 0.096,0.464 0.352,0.832 0.768,1.104 0.432,0.272 1,0.408 1.704,0.408 h 1.008 c 0.848,0 1.48,-0.168 1.896,-0.504 0.416,-0.352 0.624,-0.816 0.624,-1.392 0,-0.56 -0.192,-1 -0.576,-1.32 -0.368,-0.336 -0.92,-0.56 -1.656,-0.672 l -1.776,-0.288 c -1.296,-0.224 -2.264,-0.624 -2.904,-1.2 -0.624,-0.592 -0.936,-1.448 -0.936,-2.568 0,-1.184 0.376,-2.096 1.128,-2.736 0.752,-0.656 1.88,-0.984 3.384,-0.984 h 0.912 c 1.264,0 2.28,0.296 3.048,0.888 0.768,0.592 1.232,1.392 1.392,2.4 h -2.16 c -0.096,-0.416 -0.336,-0.744 -0.72,-0.984 -0.384,-0.256 -0.904,-0.384 -1.56,-0.384 h -0.912 c -0.816,0 -1.416,0.152 -1.8,0.456 -0.368,0.304 -0.552,0.76 -0.552,1.368 0,0.544 0.16,0.944 0.48,1.2 0.32,0.256 0.824,0.44 1.512,0.552 l 1.776,0.288 c 1.424,0.224 2.456,0.64 3.096,1.248 0.656,0.608 0.984,1.488 0.984,2.64 0,1.216 -0.392,2.176 -1.176,2.88 -0.768,0.688 -1.936,1.032 -3.504,1.032 z M 252.323,320 c -1.136,0 -2.024,-0.304 -2.664,-0.912 -0.624,-0.608 -0.936,-1.464 -0.936,-2.568 v -7.752 h -3.72 V 306.8 h 3.72 v -3.72 h 2.16 v 3.72 h 5.28 v 1.968 h -5.28 v 7.752 c 0,1.008 0.48,1.512 1.44,1.512 h 3.6 V 320 Z m 12.951,0.24 c -1.04,0 -1.952,-0.208 -2.736,-0.624 -0.768,-0.416 -1.368,-1 -1.8,-1.752 -0.416,-0.768 -0.624,-1.656 -0.624,-2.664 v -3.6 c 0,-1.024 0.208,-1.912 0.624,-2.664 0.432,-0.752 1.032,-1.336 1.8,-1.752 0.784,-0.416 1.696,-0.624 2.736,-0.624 1.04,0 1.944,0.208 2.712,0.624 0.784,0.416 1.384,1 1.8,1.752 0.432,0.752 0.648,1.64 0.648,2.664 v 2.328 h -8.208 v 1.272 c 0,1.04 0.264,1.84 0.792,2.4 0.528,0.544 1.28,0.816 2.256,0.816 0.832,0 1.504,-0.144 2.016,-0.432 0.512,-0.304 0.824,-0.752 0.936,-1.344 h 2.16 c -0.144,1.104 -0.688,1.984 -1.632,2.64 -0.928,0.64 -2.088,0.96 -3.48,0.96 z m 3.048,-7.752 V 311.6 c 0,-1.04 -0.264,-1.84 -0.792,-2.4 -0.512,-0.56 -1.264,-0.84 -2.256,-0.84 -0.976,0 -1.728,0.28 -2.256,0.84 -0.528,0.56 -0.792,1.36 -0.792,2.4 v 0.696 h 6.264 z m 6.807,7.512 v -13.2 h 2.112 v 2.52 h 0.504 l -0.696,1.56 c 0,-1.424 0.304,-2.496 0.912,-3.216 0.624,-0.736 1.544,-1.104 2.76,-1.104 1.392,0 2.496,0.44 3.312,1.32 0.832,0.864 1.248,2.04 1.248,3.528 v 0.792 h -2.16 v -0.6 c 0,-1.04 -0.256,-1.832 -0.768,-2.376 -0.496,-0.56 -1.208,-0.84 -2.136,-0.84 -0.912,0 -1.632,0.28 -2.16,0.84 -0.512,0.56 -0.768,1.352 -0.768,2.376 v 8.4 z m 15.998,4.32 1.944,-5.136 -4.896,-12.384 h 2.4 l 3.072,8.16 c 0.112,0.272 0.216,0.6 0.312,0.984 0.096,0.368 0.176,0.68 0.24,0.936 0.064,-0.256 0.144,-0.568 0.24,-0.936 0.096,-0.384 0.192,-0.712 0.288,-0.984 l 2.88,-8.16 h 2.328 l -6.504,17.52 z m 12.879,-1.44 v -2.136 c 1.04,-0.24 1.936,-0.688 2.688,-1.344 0.752,-0.672 1.328,-1.512 1.728,-2.52 0.416,-1.008 0.624,-2.128 0.624,-3.36 v -4.32 c 0,-1.264 -0.208,-2.4 -0.624,-3.408 -0.416,-1.008 -1,-1.848 -1.752,-2.52 -0.752,-0.688 -1.64,-1.152 -2.664,-1.392 v -2.04 c 1.488,0.368 2.768,0.992 3.84,1.872 1.072,0.88 1.896,1.96 2.472,3.24 0.592,1.264 0.888,2.68 0.888,4.248 v 4.32 c 0,2.384 -0.632,4.4 -1.896,6.048 -1.264,1.648 -3.032,2.752 -5.304,3.312 z"
       fill="#000000"
       id="path17" />
    <path
       d="m 108.909,318.2 c -1.187,0 -2.16,-0.307 -2.92,-0.92 -0.76,-0.613 -1.207,-1.44 -1.34,-2.48 h 1.8 c 0.067,0.573 0.313,1.02 0.74,1.34 0.427,0.307 1.007,0.46 1.74,0.46 0.84,0 1.467,-0.227 1.88,-0.68 0.427,-0.453 0.64,-1.093 0.64,-1.92 v -1.42 c 0,-0.827 -0.213,-1.467 -0.64,-1.92 -0.413,-0.453 -1.033,-0.68 -1.86,-0.68 -0.52,0 -0.973,0.14 -1.36,0.42 -0.387,0.267 -0.667,0.627 -0.84,1.08 h -1.8 l 0.1,-8.08 h 7.68 v 1.64 h -5.94 l -0.06,4.86 h 0.56 l -0.56,0.52 c 0,-0.627 0.247,-1.12 0.74,-1.48 0.507,-0.36 1.18,-0.54 2.02,-0.54 1.187,-0.013 2.107,0.353 2.76,1.1 0.667,0.733 1,1.76 1,3.08 V 314 c 0,1.293 -0.38,2.32 -1.14,3.08 -0.76,0.747 -1.827,1.12 -3.2,1.12 z"
       fill="#000000"
       id="path18" />
    <path
       d="m 150.149,466.24 c -1.04,0 -1.952,-0.208 -2.736,-0.624 -0.768,-0.416 -1.368,-1 -1.8,-1.752 -0.416,-0.768 -0.624,-1.656 -0.624,-2.664 v -3.6 c 0,-1.024 0.208,-1.912 0.624,-2.664 0.432,-0.752 1.032,-1.336 1.8,-1.752 0.784,-0.416 1.696,-0.624 2.736,-0.624 1.04,0 1.944,0.208 2.712,0.624 0.784,0.416 1.384,1 1.8,1.752 0.432,0.752 0.648,1.64 0.648,2.664 v 2.328 h -8.208 v 1.272 c 0,1.04 0.264,1.84 0.792,2.4 0.528,0.544 1.28,0.816 2.256,0.816 0.832,0 1.504,-0.144 2.016,-0.432 0.512,-0.304 0.824,-0.752 0.936,-1.344 h 2.16 c -0.144,1.104 -0.688,1.984 -1.632,2.64 -0.928,0.64 -2.088,0.96 -3.48,0.96 z m 3.048,-7.752 V 457.6 c 0,-1.04 -0.264,-1.84 -0.792,-2.4 -0.512,-0.56 -1.264,-0.84 -2.256,-0.84 -0.976,0 -1.728,0.28 -2.256,0.84 -0.528,0.56 -0.792,1.36 -0.792,2.4 v 0.696 h 6.264 z m 6.351,7.512 v -13.2 h 2.16 v 2.52 h 0.456 l -0.456,0.504 c 0,-1.04 0.312,-1.84 0.936,-2.4 0.624,-0.576 1.488,-0.864 2.592,-0.864 1.328,0 2.384,0.408 3.168,1.224 0.784,0.816 1.176,1.928 1.176,3.336 V 466 h -2.16 v -8.64 c 0,-0.944 -0.256,-1.664 -0.768,-2.16 -0.496,-0.512 -1.176,-0.768 -2.04,-0.768 -0.896,0 -1.608,0.272 -2.136,0.816 -0.512,0.544 -0.768,1.328 -0.768,2.352 v 8.4 z m 18.614,0.24 c -1.312,0 -2.376,-0.44 -3.192,-1.32 -0.8,-0.88 -1.2,-2.072 -1.2,-3.576 v -3.864 c 0,-1.52 0.4,-2.72 1.2,-3.6 0.8,-0.88 1.864,-1.32 3.192,-1.32 1.088,0 1.96,0.296 2.616,0.888 0.656,0.592 0.984,1.384 0.984,2.376 l -0.432,-0.504 h 0.48 l -0.048,-3 v -3.84 h 2.16 V 466 h -2.16 v -2.52 h -0.432 l 0.432,-0.504 c 0,1.008 -0.328,1.808 -0.984,2.4 -0.656,0.576 -1.528,0.864 -2.616,0.864 z m 0.72,-1.872 c 0.896,0 1.6,-0.28 2.112,-0.84 0.512,-0.56 0.768,-1.336 0.768,-2.328 v -3.6 c 0,-0.992 -0.256,-1.768 -0.768,-2.328 -0.512,-0.56 -1.216,-0.84 -2.112,-0.84 -0.912,0 -1.632,0.272 -2.16,0.816 -0.528,0.544 -0.792,1.328 -0.792,2.352 v 3.6 c 0,1.024 0.264,1.808 0.792,2.352 0.528,0.544 1.248,0.816 2.16,0.816 z"
       fill="#000000"
       id="path19" />
    <path
       d="m 106.649,464 5.22,-12.96 h -5.52 v 2.16 h -1.8 v -3.8 h 9.1 v 1.76 l -5.06,12.84 z"
       fill="#000000"
       id="path20" />
    <path
       d="m 109,73 5.774,-10 h -11.547 z m -1,-35 v 26 h 2 V 38 Z"
       fill="#000000"
       id="path21" />
    <path
       d="m 109,146 5.774,-10 h -11.547 z m -1,-35 v 26 h 2 v -26 z"
       fill="#000000"
       id="path22" />
    <path
       d="m 108.949,292 5.774,-10 h -11.547 z m -1,-35 v 26 h 2 v -26 z"
       fill="#000000"
       id="path23" />
    <path
       d="m 108.949,438 5.774,-10 h -11.547 z m -1,-35 v 26 h 2 v -26 z"
       fill="#000000"
       id="path24" />
    <path
       d="m 108.949,365 5.774,-10 h -11.547 z m -1,-35 v 26 h 2 v -26 z"
       fill="#000000"
       id="path25" />
    <path
       d="m 109,219 5.774,-10 h -11.547 z m -1,-35 v 26 h 2 v -26 z"
       fill="#000000"
       id="path26" />
    <path
       d="m 63.9489,322 v -1 h -1 v 1 z m 0,135.5 h -1 v 1 h 1 z m 26,0 -10,-5.773 v 11.547 z M 94,321 H 63.9489 v 2 H 94 Z m -31.0511,1 v 135.5 h 2 V 322 Z m 1,136.5 h 17 v -2 h -17 z"
       fill="#000000"
       id="path27" />
    <rect
       x="95.000099"
       y="192"
       width="28"
       height="12"
       fill="#ffffff"
       id="rect27" />
    <path
       d="m 100.608,202 c -0.473,0 -0.8435,-0.127 -1.1101,-0.38 -0.26,-0.253 -0.39,-0.61 -0.39,-1.07 v -3.23 h -1.55 v -0.82 h 1.55 v -1.55 h 0.9001 v 1.55 h 2.2 v 0.82 h -2.2 v 3.23 c 0,0.42 0.2,0.63 0.6,0.63 h 1.5 V 202 Z m 3.506,0 v -5.5 h 0.88 v 1.05 h 0.21 l -0.29,0.65 c 0,-0.593 0.127,-1.04 0.38,-1.34 0.26,-0.307 0.643,-0.46 1.15,-0.46 0.58,0 1.04,0.183 1.38,0.55 0.347,0.36 0.52,0.85 0.52,1.47 v 0.33 h -0.9 v -0.25 c 0,-0.433 -0.107,-0.763 -0.32,-0.99 -0.207,-0.233 -0.503,-0.35 -0.89,-0.35 -0.38,0 -0.68,0.117 -0.9,0.35 -0.213,0.233 -0.32,0.563 -0.32,0.99 v 3.5 z m 7.876,0.1 c -0.633,0 -1.14,-0.187 -1.52,-0.56 -0.38,-0.38 -0.57,-0.893 -0.57,-1.54 v -3.5 h 0.9 v 3.5 c 0,0.413 0.107,0.737 0.32,0.97 0.213,0.227 0.503,0.34 0.87,0.34 0.373,0 0.667,-0.113 0.88,-0.34 0.22,-0.233 0.33,-0.557 0.33,-0.97 v -3.5 h 0.9 v 3.5 c 0,0.647 -0.193,1.16 -0.58,1.54 -0.387,0.373 -0.897,0.56 -1.53,0.56 z m 6.006,0 c -0.433,0 -0.813,-0.087 -1.14,-0.26 -0.32,-0.173 -0.57,-0.417 -0.75,-0.73 -0.173,-0.32 -0.26,-0.69 -0.26,-1.11 v -1.5 c 0,-0.427 0.087,-0.797 0.26,-1.11 0.18,-0.313 0.43,-0.557 0.75,-0.73 0.327,-0.173 0.707,-0.26 1.14,-0.26 0.433,0 0.81,0.087 1.13,0.26 0.327,0.173 0.577,0.417 0.75,0.73 0.18,0.313 0.27,0.683 0.27,1.11 v 0.97 h -3.42 V 200 c 0,0.433 0.11,0.767 0.33,1 0.22,0.227 0.533,0.34 0.94,0.34 0.347,0 0.627,-0.06 0.84,-0.18 0.213,-0.127 0.343,-0.313 0.39,-0.56 h 0.9 c -0.06,0.46 -0.287,0.827 -0.68,1.1 -0.387,0.267 -0.87,0.4 -1.45,0.4 z m 1.27,-3.23 v -0.37 c 0,-0.433 -0.11,-0.767 -0.33,-1 -0.213,-0.233 -0.527,-0.35 -0.94,-0.35 -0.407,0 -0.72,0.117 -0.94,0.35 -0.22,0.233 -0.33,0.567 -0.33,1 v 0.29 h 2.61 z"
       fill="#000000"
       id="path28" />
    <rect
       x="94.949097"
       y="338"
       width="28"
       height="12"
       fill="#ffffff"
       id="rect28" />
    <path
       d="m 100.557,348 c -0.473,0 -0.8434,-0.127 -1.1101,-0.38 -0.26,-0.253 -0.39,-0.61 -0.39,-1.07 v -3.23 h -1.55 v -0.82 h 1.55 v -1.55 h 0.9 v 1.55 h 2.2001 v 0.82 h -2.2001 v 3.23 c 0,0.42 0.2001,0.63 0.6001,0.63 h 1.5 V 348 Z m 3.506,0 v -5.5 h 0.88 v 1.05 h 0.21 l -0.29,0.65 c 0,-0.593 0.127,-1.04 0.38,-1.34 0.26,-0.307 0.643,-0.46 1.15,-0.46 0.58,0 1.04,0.183 1.38,0.55 0.347,0.36 0.52,0.85 0.52,1.47 v 0.33 h -0.9 v -0.25 c 0,-0.433 -0.107,-0.763 -0.32,-0.99 -0.207,-0.233 -0.503,-0.35 -0.89,-0.35 -0.38,0 -0.68,0.117 -0.9,0.35 -0.213,0.233 -0.32,0.563 -0.32,0.99 v 3.5 z m 7.876,0.1 c -0.633,0 -1.14,-0.187 -1.52,-0.56 -0.38,-0.38 -0.57,-0.893 -0.57,-1.54 v -3.5 h 0.9 v 3.5 c 0,0.413 0.107,0.737 0.32,0.97 0.213,0.227 0.503,0.34 0.87,0.34 0.373,0 0.667,-0.113 0.88,-0.34 0.22,-0.233 0.33,-0.557 0.33,-0.97 v -3.5 h 0.9 v 3.5 c 0,0.647 -0.193,1.16 -0.58,1.54 -0.387,0.373 -0.897,0.56 -1.53,0.56 z m 6.006,0 c -0.433,0 -0.813,-0.087 -1.14,-0.26 -0.32,-0.173 -0.57,-0.417 -0.75,-0.73 -0.173,-0.32 -0.26,-0.69 -0.26,-1.11 v -1.5 c 0,-0.427 0.087,-0.797 0.26,-1.11 0.18,-0.313 0.43,-0.557 0.75,-0.73 0.327,-0.173 0.707,-0.26 1.14,-0.26 0.434,0 0.81,0.087 1.13,0.26 0.327,0.173 0.577,0.417 0.75,0.73 0.18,0.313 0.27,0.683 0.27,1.11 v 0.97 h -3.42 V 346 c 0,0.433 0.11,0.767 0.33,1 0.22,0.227 0.534,0.34 0.94,0.34 0.347,0 0.627,-0.06 0.84,-0.18 0.214,-0.127 0.344,-0.313 0.39,-0.56 h 0.9 c -0.06,0.46 -0.286,0.827 -0.68,1.1 -0.386,0.267 -0.87,0.4 -1.45,0.4 z m 1.27,-3.23 v -0.37 c 0,-0.433 -0.11,-0.767 -0.33,-1 -0.213,-0.233 -0.526,-0.35 -0.94,-0.35 -0.406,0 -0.72,0.117 -0.94,0.35 -0.22,0.233 -0.33,0.567 -0.33,1 v 0.29 h 2.61 z"
       fill="#000000"
       id="path29" />
    <rect
       x="94.949097"
       y="338"
       width="28"
       height="12"
       fill="#ffffff"
       id="rect29" />
    <path
       d="m 100.557,348 c -0.473,0 -0.8434,-0.127 -1.1101,-0.38 -0.26,-0.253 -0.39,-0.61 -0.39,-1.07 v -3.23 h -1.55 v -0.82 h 1.55 v -1.55 h 0.9 v 1.55 h 2.2001 v 0.82 h -2.2001 v 3.23 c 0,0.42 0.2001,0.63 0.6001,0.63 h 1.5 V 348 Z m 3.506,0 v -5.5 h 0.88 v 1.05 h 0.21 l -0.29,0.65 c 0,-0.593 0.127,-1.04 0.38,-1.34 0.26,-0.307 0.643,-0.46 1.15,-0.46 0.58,0 1.04,0.183 1.38,0.55 0.347,0.36 0.52,0.85 0.52,1.47 v 0.33 h -0.9 v -0.25 c 0,-0.433 -0.107,-0.763 -0.32,-0.99 -0.207,-0.233 -0.503,-0.35 -0.89,-0.35 -0.38,0 -0.68,0.117 -0.9,0.35 -0.213,0.233 -0.32,0.563 -0.32,0.99 v 3.5 z m 7.876,0.1 c -0.633,0 -1.14,-0.187 -1.52,-0.56 -0.38,-0.38 -0.57,-0.893 -0.57,-1.54 v -3.5 h 0.9 v 3.5 c 0,0.413 0.107,0.737 0.32,0.97 0.213,0.227 0.503,0.34 0.87,0.34 0.373,0 0.667,-0.113 0.88,-0.34 0.22,-0.233 0.33,-0.557 0.33,-0.97 v -3.5 h 0.9 v 3.5 c 0,0.647 -0.193,1.16 -0.58,1.54 -0.387,0.373 -0.897,0.56 -1.53,0.56 z m 6.006,0 c -0.433,0 -0.813,-0.087 -1.14,-0.26 -0.32,-0.173 -0.57,-0.417 -0.75,-0.73 -0.173,-0.32 -0.26,-0.69 -0.26,-1.11 v -1.5 c 0,-0.427 0.087,-0.797 0.26,-1.11 0.18,-0.313 0.43,-0.557 0.75,-0.73 0.327,-0.173 0.707,-0.26 1.14,-0.26 0.434,0 0.81,0.087 1.13,0.26 0.327,0.173 0.577,0.417 0.75,0.73 0.18,0.313 0.27,0.683 0.27,1.11 v 0.97 h -3.42 V 346 c 0,0.433 0.11,0.767 0.33,1 0.22,0.227 0.534,0.34 0.94,0.34 0.347,0 0.627,-0.06 0.84,-0.18 0.214,-0.127 0.344,-0.313 0.39,-0.56 h 0.9 c -0.06,0.46 -0.286,0.827 -0.68,1.1 -0.386,0.267 -0.87,0.4 -1.45,0.4 z m 1.27,-3.23 v -0.37 c 0,-0.433 -0.11,-0.767 -0.33,-1 -0.213,-0.233 -0.526,-0.35 -0.94,-0.35 -0.406,0 -0.72,0.117 -0.94,0.35 -0.22,0.233 -0.33,0.567 -0.33,1 v 0.29 h 2.61 z"
       fill="#000000"
       id="path30" />
    <rect
       x="50.058899"
       y="379"
       width="28.8902"
       height="12"
       fill="#ffffff"
       id="rect30"
       style="stroke-width:0.839428" />
    <path
       d="m 51.6589,388 v -4.13 h -1.6 v -0.82 h 1.6 v -0.95 c 0,-0.433 0.1366,-0.773 0.41,-1.02 0.2733,-0.253 0.65,-0.38 1.13,-0.38 h 1.61 v 0.82 h -1.61 c -0.2067,0 -0.3667,0.05 -0.48,0.15 -0.1067,0.093 -0.16,0.237 -0.16,0.43 v 0.95 h 2.25 v 0.82 h -2.25 V 388 Z m 6.3161,0.1 c -0.58,0 -1.0367,-0.147 -1.37,-0.44 -0.3334,-0.3 -0.5,-0.703 -0.5,-1.21 0,-0.513 0.1666,-0.917 0.5,-1.21 0.3333,-0.293 0.7833,-0.44 1.35,-0.44 h 1.7 v -0.55 c 0,-0.34 -0.1034,-0.6 -0.31,-0.78 -0.2,-0.187 -0.4867,-0.28 -0.86,-0.28 -0.3267,0 -0.6,0.07 -0.82,0.21 -0.22,0.133 -0.3467,0.317 -0.38,0.55 h -0.9 c 0.06,-0.473 0.2833,-0.85 0.67,-1.13 0.3866,-0.28 0.87,-0.42 1.45,-0.42 0.6333,0 1.1333,0.163 1.5,0.49 0.3666,0.327 0.55,0.77 0.55,1.33 V 388 h -0.88 v -1.05 h -0.15 l 0.15,-0.15 c 0,0.4 -0.1567,0.717 -0.47,0.95 -0.3067,0.233 -0.7167,0.35 -1.23,0.35 z m 0.22,-0.71 c 0.4266,0 0.7766,-0.107 1.05,-0.32 0.2733,-0.213 0.41,-0.487 0.41,-0.82 v -0.78 h -1.68 c -0.3,0 -0.5367,0.083 -0.71,0.25 -0.1734,0.167 -0.26,0.393 -0.26,0.68 0,0.307 0.1033,0.55 0.31,0.73 0.2133,0.173 0.5066,0.26 0.88,0.26 z m 7.0061,0.61 c -0.32,0 -0.6001,-0.063 -0.8401,-0.19 -0.2399,-0.127 -0.4266,-0.307 -0.56,-0.54 -0.1333,-0.233 -0.2,-0.507 -0.2,-0.82 v -4.93 h -1.85 v -0.82 h 2.75 v 5.75 c 0,0.227 0.0634,0.407 0.19,0.54 0.1267,0.127 0.2967,0.19 0.5101,0.19 H 66.951 V 388 Z m 5.076,0.08 c -0.3733,0 -0.7,-0.057 -0.98,-0.17 -0.2733,-0.12 -0.4933,-0.287 -0.66,-0.5 -0.16,-0.213 -0.2566,-0.467 -0.29,-0.76 h 0.9 c 0.04,0.193 0.1467,0.347 0.32,0.46 0.18,0.113 0.4167,0.17 0.71,0.17 h 0.42 c 0.3534,0 0.6167,-0.07 0.79,-0.21 0.1734,-0.147 0.26,-0.34 0.26,-0.58 0,-0.233 -0.08,-0.417 -0.24,-0.55 -0.1533,-0.14 -0.3833,-0.233 -0.69,-0.28 l -0.74,-0.12 c -0.54,-0.093 -0.9433,-0.26 -1.21,-0.5 -0.26,-0.247 -0.39,-0.603 -0.39,-1.07 0,-0.493 0.1567,-0.873 0.47,-1.14 0.3134,-0.273 0.7834,-0.41 1.41,-0.41 h 0.38 c 0.5267,0 0.95,0.123 1.27,0.37 0.32,0.247 0.5134,0.58 0.58,1 h -0.9 c -0.04,-0.173 -0.14,-0.31 -0.3,-0.41 -0.16,-0.107 -0.3766,-0.16 -0.65,-0.16 h -0.38 c -0.34,0 -0.59,0.063 -0.75,0.19 -0.1533,0.127 -0.23,0.317 -0.23,0.57 0,0.227 0.0667,0.393 0.2,0.5 0.1334,0.107 0.3434,0.183 0.63,0.23 l 0.74,0.12 c 0.5934,0.093 1.0234,0.267 1.29,0.52 0.2734,0.253 0.41,0.62 0.41,1.1 0,0.507 -0.1633,0.907 -0.49,1.2 -0.32,0.287 -0.8066,0.43 -1.46,0.43 z m 6.1661,0.02 c -0.4333,0 -0.8133,-0.087 -1.14,-0.26 -0.32,-0.173 -0.57,-0.417 -0.75,-0.73 -0.1733,-0.32 -0.26,-0.69 -0.26,-1.11 v -1.5 c 0,-0.427 0.0867,-0.797 0.26,-1.11 0.18,-0.313 0.43,-0.557 0.75,-0.73 0.3267,-0.173 0.7067,-0.26 1.14,-0.26 0.4334,0 0.81,0.087 1.13,0.26 0.3267,0.173 0.5767,0.417 0.75,0.73 0.18,0.313 0.27,0.683 0.27,1.11 v 0.97 h -3.42 V 386 c 0,0.433 0.11,0.767 0.33,1 0.22,0.227 0.5334,0.34 0.94,0.34 0.3467,0 0.6267,-0.06 0.84,-0.18 0.2134,-0.127 0.3434,-0.313 0.39,-0.56 h 0.9 c -0.06,0.46 -0.2866,0.827 -0.68,1.1 -0.3866,0.267 -0.87,0.4 -1.45,0.4 z m 1.27,-3.23 v -0.37 c 0,-0.433 -0.11,-0.767 -0.33,-1 -0.2133,-0.233 -0.5266,-0.35 -0.94,-0.35 -0.4066,0 -0.72,0.117 -0.94,0.35 -0.22,0.233 -0.33,0.567 -0.33,1 v 0.29 h 2.61 z"
       fill="#000000"
       id="path31" />
    <path
       d="m 63.9491,164.237 v -1 h -1 v 1 z m 0,135.263 h -1 v 1 h 1 z m 30.0508,0 -10,-5.774 v 11.547 z M 89.9491,163.237 h -26 v 2 h 26 z m -27,1 V 299.5 h 2 V 164.237 Z m 1,136.263 h 21.0508 v -2 H 63.9491 Z"
       fill="#000000"
       id="path32" />
    <rect
       x="50.058701"
       y="232.23599"
       width="28.890301"
       height="12"
       fill="#ffffff"
       id="rect32"
       style="stroke-width:0.839429" />
    <path
       d="m 51.6587,241.236 v -4.13 h -1.6 v -0.82 h 1.6 v -0.95 c 0,-0.433 0.1367,-0.773 0.41,-1.02 0.2734,-0.253 0.65,-0.38 1.13,-0.38 h 1.61 v 0.82 h -1.61 c -0.2066,0 -0.3666,0.05 -0.48,0.15 -0.1066,0.094 -0.16,0.237 -0.16,0.43 v 0.95 h 2.25 v 0.82 h -2.25 v 4.13 z m 6.3161,0.1 c -0.58,0 -1.0366,-0.146 -1.37,-0.44 -0.3333,-0.3 -0.5,-0.703 -0.5,-1.21 0,-0.513 0.1667,-0.916 0.5,-1.21 0.3334,-0.293 0.7834,-0.44 1.35,-0.44 h 1.7 v -0.55 c 0,-0.34 -0.1033,-0.6 -0.31,-0.78 -0.2,-0.186 -0.4866,-0.28 -0.86,-0.28 -0.3266,0 -0.6,0.07 -0.82,0.21 -0.22,0.134 -0.3466,0.317 -0.38,0.55 h -0.9 c 0.06,-0.473 0.2834,-0.85 0.67,-1.13 0.3867,-0.28 0.87,-0.42 1.45,-0.42 0.6334,0 1.1334,0.164 1.5,0.49 0.3667,0.327 0.55,0.77 0.55,1.33 v 3.78 h -0.88 v -1.05 h -0.15 l 0.15,-0.15 c 0,0.4 -0.1566,0.717 -0.47,0.95 -0.3066,0.234 -0.7166,0.35 -1.23,0.35 z m 0.22,-0.71 c 0.4267,0 0.7767,-0.106 1.05,-0.32 0.2734,-0.213 0.41,-0.486 0.41,-0.82 v -0.78 h -1.68 c -0.3,0 -0.5366,0.084 -0.71,0.25 -0.1733,0.167 -0.26,0.394 -0.26,0.68 0,0.307 0.1034,0.55 0.31,0.73 0.2134,0.174 0.5067,0.26 0.88,0.26 z m 7.0061,0.61 c -0.32,0 -0.6,-0.063 -0.84,-0.19 -0.24,-0.126 -0.4266,-0.306 -0.56,-0.54 -0.1333,-0.233 -0.2,-0.506 -0.2,-0.82 v -4.93 h -1.85 v -0.82 h 2.75 v 5.75 c 0,0.227 0.0634,0.407 0.19,0.54 0.1267,0.127 0.2967,0.19 0.51,0.19 h 1.75 v 0.82 z m 5.0761,0.08 c -0.3733,0 -0.7,-0.056 -0.98,-0.17 -0.2733,-0.12 -0.4933,-0.286 -0.66,-0.5 -0.16,-0.213 -0.2566,-0.466 -0.29,-0.76 h 0.9 c 0.04,0.194 0.1467,0.347 0.32,0.46 0.18,0.114 0.4167,0.17 0.71,0.17 h 0.42 c 0.3534,0 0.6167,-0.07 0.79,-0.21 0.1734,-0.146 0.26,-0.34 0.26,-0.58 0,-0.233 -0.08,-0.416 -0.24,-0.55 -0.1533,-0.14 -0.3833,-0.233 -0.69,-0.28 l -0.74,-0.12 c -0.54,-0.093 -0.9433,-0.26 -1.21,-0.5 -0.26,-0.246 -0.39,-0.603 -0.39,-1.07 0,-0.493 0.1567,-0.873 0.47,-1.14 0.3134,-0.273 0.7834,-0.41 1.41,-0.41 h 0.38 c 0.5267,0 0.95,0.124 1.27,0.37 0.32,0.247 0.5134,0.58 0.58,1 h -0.9 c -0.04,-0.173 -0.14,-0.31 -0.3,-0.41 -0.16,-0.106 -0.3766,-0.16 -0.65,-0.16 h -0.38 c -0.34,0 -0.59,0.064 -0.75,0.19 -0.1533,0.127 -0.23,0.317 -0.23,0.57 0,0.227 0.0667,0.394 0.2,0.5 0.1334,0.107 0.3434,0.184 0.63,0.23 l 0.74,0.12 c 0.5934,0.094 1.0234,0.267 1.29,0.52 0.2734,0.254 0.41,0.62 0.41,1.1 0,0.507 -0.1633,0.907 -0.49,1.2 -0.32,0.287 -0.8066,0.43 -1.46,0.43 z m 6.1661,0.02 c -0.4333,0 -0.8133,-0.086 -1.14,-0.26 -0.32,-0.173 -0.57,-0.416 -0.75,-0.73 -0.1733,-0.32 -0.26,-0.69 -0.26,-1.11 v -1.5 c 0,-0.426 0.0867,-0.796 0.26,-1.11 0.18,-0.313 0.43,-0.556 0.75,-0.73 0.3267,-0.173 0.7067,-0.26 1.14,-0.26 0.4333,0 0.81,0.087 1.13,0.26 0.3267,0.174 0.5767,0.417 0.75,0.73 0.18,0.314 0.27,0.684 0.27,1.11 v 0.97 h -3.42 v 0.53 c 0,0.434 0.11,0.767 0.33,1 0.22,0.227 0.5333,0.34 0.94,0.34 0.3467,0 0.6267,-0.06 0.84,-0.18 0.2133,-0.126 0.3433,-0.313 0.39,-0.56 h 0.9 c -0.06,0.46 -0.2867,0.827 -0.68,1.1 -0.3867,0.267 -0.87,0.4 -1.45,0.4 z m 1.27,-3.23 v -0.37 c 0,-0.433 -0.11,-0.766 -0.33,-1 -0.2133,-0.233 -0.5267,-0.35 -0.94,-0.35 -0.4067,0 -0.72,0.117 -0.94,0.35 -0.22,0.234 -0.33,0.567 -0.33,1 v 0.29 h 2.61 z"
       fill="#000000"
       id="path33" />
  </g>
</svg>
