<?xml version="1.0" encoding="UTF-8" standalone="no"?>
<svg
   width="281.54086"
   height="205.9809"
   viewBox="0 0 281.54086 205.98091"
   fill="none"
   version="1.1"
   id="svg8"
   sodipodi:docname="two_cfgs.svg"
   inkscape:version="1.3.2 (091e20ef0f, 2023-11-25, custom)"
   xmlns:inkscape="http://www.inkscape.org/namespaces/inkscape"
   xmlns:sodipodi="http://sodipodi.sourceforge.net/DTD/sodipodi-0.dtd"
   xmlns="http://www.w3.org/2000/svg"
   xmlns:svg="http://www.w3.org/2000/svg">
  <defs
     id="defs8" />
  <sodipodi:namedview
     id="namedview8"
     pagecolor="#ffffff"
     bordercolor="#000000"
     borderopacity="0.25"
     inkscape:showpageshadow="2"
     inkscape:pageopacity="0.0"
     inkscape:pagecheckerboard="0"
     inkscape:deskcolor="#d1d1d1"
     inkscape:zoom="3.2808989"
     inkscape:cx="107.13527"
     inkscape:cy="117.34589"
     inkscape:window-width="2560"
     inkscape:window-height="1372"
     inkscape:window-x="0"
     inkscape:window-y="0"
     inkscape:window-maximized="1"
     inkscape:current-layer="svg8" />
  <rect
     style="fill:#ffffff;stroke-width:0.83198"
     id="rect9"
     width="281.54086"
     height="205.9809"
     x="0"
     y="0" />
  <g
     id="g10"
     transform="translate(348.12179,-184.85788)">
    <g
       id="g9"
       transform="translate(-316.96585,198.84833)">
      <circle
         cx="57"
         cy="19"
         r="18.5"
         fill="#ffffff"
         stroke="#000000"
         id="circle1" />
      <path
         d="m 52.8,26 v -1.64 h 3.96 V 12.9 l -3.96,2.96 v -2 l 3.3,-2.46 h 2.46 V 24.36 H 61.8 V 26 Z"
         fill="#000000"
         id="path1" />
      <circle
         cx="19"
         cy="89"
         r="18.5"
         fill="#ffffff"
         stroke="#000000"
         id="circle2" />
      <path
         d="m 14.84,96 v -1.84 l 4.46,-4.74 c 0.76,-0.8133 1.3133,-1.5333 1.66,-2.16 0.3467,-0.64 0.52,-1.2533 0.52,-1.84 0,-0.8133 -0.2267,-1.4533 -0.68,-1.92 -0.44,-0.4667 -1.0467,-0.7 -1.82,-0.7 -0.8533,0 -1.5267,0.24 -2.02,0.72 -0.48,0.48 -0.72,1.14 -0.72,1.98 h -1.8 c 0.0267,-0.88 0.2267,-1.64 0.6,-2.28 0.3867,-0.6533 0.9133,-1.1533 1.58,-1.5 0.68,-0.3467 1.4667,-0.52 2.36,-0.52 0.88,0 1.64,0.1733 2.28,0.52 0.6533,0.3333 1.1533,0.8133 1.5,1.44 0.3467,0.6267 0.52,1.3733 0.52,2.24 0,0.8267 -0.22,1.6467 -0.66,2.46 -0.44,0.8133 -1.16,1.74 -2.16,2.78 l -3.6,3.72 h 6.66 V 96 Z"
         fill="#000000"
         id="path2" />
      <circle
         cx="57"
         cy="159"
         r="18.5"
         fill="#ffffff"
         stroke="#000000"
         id="circle3" />
      <path
         d="m 59.2,166 v -3.2 h -6.6 v -2.82 l 5.78,-8.58 h 1.96 l -5.94,8.96 v 0.8 h 4.8 V 157.6 H 61 v 8.4 z"
         fill="#000000"
         id="path3" />
      <circle
         cx="95"
         cy="89"
         r="18.5"
         fill="#ffffff"
         stroke="#000000"
         id="circle4" />
      <path
         d="M 94.78,96.2 C 93.9,96.2 93.1267,96.0267 92.46,95.68 91.8067,95.32 91.3,94.8267 90.94,94.2 90.58,93.5733 90.4,92.84 90.4,92 h 1.8 c 0,0.8133 0.2267,1.4533 0.68,1.92 0.4667,0.4533 1.1067,0.68 1.92,0.68 0.8267,0 1.4667,-0.24 1.92,-0.72 C 97.1733,93.4 97.4,92.7733 97.4,92 v -1.04 c 0,-0.8267 -0.2267,-1.4667 -0.68,-1.92 -0.4533,-0.4533 -1.0933,-0.68 -1.92,-0.68 h -1.5 v -1.8 l 3.62,-3.52 H 91 V 81.4 h 7.74 v 1.8 l -3.9,3.78 v -0.22 c 1.3333,0 2.3933,0.38 3.18,1.14 0.7867,0.76 1.18,1.78 1.18,3.06 V 92 c 0,0.84 -0.1867,1.5733 -0.56,2.2 -0.36,0.6267 -0.8733,1.12 -1.54,1.48 -0.6667,0.3467 -1.44,0.52 -2.32,0.52 z"
         fill="#000000"
         id="path4" />
      <path
         d="M 89,72 88.624,60.4591 78.8173,66.5552 Z M 65.1507,35.5279 83.3993,64.8844 85.0979,63.8285 66.8493,34.4721 Z"
         fill="#000000"
         id="path5" />
      <path
         d="m 48,143 -0.376,-11.541 -9.8067,6.096 z m -23.8493,-36.472 18.2486,29.356 1.6986,-1.056 -18.2486,-29.356 z"
         fill="#000000"
         id="path6" />
      <path
         d="m 25,72 0.376,-11.5409 9.8067,6.0961 z M 48.8493,35.5279 30.6007,64.8844 28.9021,63.8285 47.1507,34.4721 Z"
         fill="#000000"
         id="path7" />
      <path
         d="m 66,143 0.376,-11.541 9.8067,6.096 z m 23.8493,-36.472 -18.2486,29.356 -1.6986,-1.056 18.2486,-29.356 z"
         fill="#000000"
         id="path8" />
    </g>
    <g
       id="g8"
       transform="translate(-330.50009,110.84833)">
      <path
         d="m 196.97532,159 5.7735,-10 h -11.547 z m -1,-33 v 24 h 2 v -24 z"
         fill="#000000"
         id="path1-3" />
      <path
         d="m 178.47532,107 -10.25647,-5.3046 0.53429,11.5346 z m 11.304,52.4057 c -13.765,-18.6277 -21.5931,-31.0268 -24.49302,-39.0443 -1.45471,-4.0218 -1.58553,-6.7221 -0.84112,-8.5066 0.71257,-1.7083 2.35618,-2.8571 5.24396,-3.4594 l -0.40835,-1.9579 c -3.20377,0.6682 -5.60816,2.0743 -6.68145,4.6473 -1.04146,2.4966 -0.69603,5.8037 0.80621,9.9569 3.01395,8.3327 11.02247,20.9549 24.76527,39.5526 z"
         fill="#000000"
         id="path2-6" />
      <path
         d="m 202.97502,229.99999 10.8603,-3.923 -8.8272,-7.444 z m -0.7096,-105.29539 c 18.7564,18.8904 27.807,33.8492 28.4597,48.7101 0.6527,14.86129 -7.079,29.92729 -22.7241,49.07429 l 1.5488,1.266 c 15.6994,-19.214 23.8605,-34.783 23.1733,-50.42799 -0.6871,-15.646 -10.2089,-31.0674 -29.0385,-50.0316 z"
         fill="#000000"
         id="path3-7" />
      <circle
         cx="196.97531"
         cy="107"
         r="18.5"
         fill="#ffffff"
         stroke="#000000"
         id="circle3-5" />
      <path
         d="m 192.77532,114 v -1.64 h 3.96 V 100.9 l -3.96,2.96 v -2 l 3.3,-2.460001 h 2.46 V 112.36 h 3.24 V 114 Z"
         fill="#000000"
         id="path4-3" />
      <circle
         cx="196.97531"
         cy="177"
         r="18.5"
         fill="#ffffff"
         stroke="#000000"
         id="circle4-5" />
      <path
         d="m 192.81532,184 v -1.84001 l 4.46,-4.74 c 0.76,-0.81329 1.3133,-1.53329 1.66,-2.15999 0.3466,-0.64 0.52,-1.2533 0.52,-1.84 0,-0.8133 -0.2267,-1.4533 -0.68,-1.92 -0.44,-0.4667 -1.0467,-0.7 -1.82,-0.7 -0.8534,0 -1.5267,0.24 -2.02,0.72 -0.48,0.48 -0.72,1.14 -0.72,1.98 h -1.8 c 0.0266,-0.88 0.2266,-1.64 0.6,-2.28 0.3866,-0.6533 0.9133,-1.1533 1.58,-1.5 0.68,-0.3467 1.4666,-0.52 2.36,-0.52 0.88,0 1.64,0.1733 2.28,0.52 0.6533,0.3333 1.1533,0.8133 1.5,1.44 0.3466,0.6267 0.52,1.3733 0.52,2.24 0,0.8267 -0.22,1.6467 -0.66,2.46 -0.44,0.8133 -1.16,1.73999 -2.16,2.77999 l -3.6,3.72 h 6.66 v 1.64 z"
         fill="#000000"
         id="path5-6" />
      <circle
         cx="196.97531"
         cy="247"
         r="18.5"
         fill="#ffffff"
         stroke="#000000"
         id="circle5" />
      <path
         d="m 196.75532,254.19999 c -0.88,0 -1.6534,-0.173 -2.32,-0.52 -0.6534,-0.36 -1.16,-0.853 -1.52,-1.48 -0.36,-0.627 -0.54,-1.36 -0.54,-2.19999 h 1.8 c 0,0.81299 0.2266,1.453 0.68,1.91999 0.4666,0.453 1.1066,0.68 1.92,0.68 0.8266,0 1.4666,-0.24 1.92,-0.72 0.4533,-0.47999 0.68,-1.107 0.68,-1.87999 v -1.04 c 0,-0.827 -0.2267,-1.46701 -0.68,-1.92 -0.4534,-0.453 -1.0934,-0.68 -1.92,-0.68 h -1.5 v -1.8 l 3.62,-3.52001 h -5.92 V 239.4 h 7.74 v 1.8 l -3.9,3.78 v -0.22 c 1.3333,0 2.3933,0.38 3.18,1.14 0.7866,0.75999 1.18,1.78 1.18,3.06 V 250 c 0,0.84 -0.1867,1.573 -0.56,2.19999 -0.36,0.627 -0.8734,1.12 -1.54,1.48 -0.6667,0.347 -1.44,0.52 -2.32,0.52 z"
         fill="#000000"
         id="path6-2" />
    </g>
  </g>
</svg>
